<svg xmlns="http://www.w3.org/2000/svg" width="20.693" height="20.693" viewBox="0 0 20.693 20.693">
  <g id="Group_12401" data-name="Group 12401" transform="translate(-52.536 1.753)">
    <g id="noun-cycle-4986779" transform="translate(52.783 -1.503)">
      <path id="Path_11346" data-name="Path 11346" d="M105.373,47.417a.72.72,0,0,1-.72-.555,10.085,10.085,0,0,1,17.108-9.307.72.72,0,1,1-1.037.994,8.644,8.644,0,0,0-14.882,5.986,8.786,8.786,0,0,0,.231,2,.72.72,0,0,1-.533.886Z" transform="translate(-104.375 -34.427)" fill="#2aa900"/>
      <path id="Path_11346_-_Outline" data-name="Path 11346 - Outline" d="M105.353,47.667a.97.97,0,0,1-.944-.748,10.335,10.335,0,0,1,17.526-9.543.97.97,0,1,1-1.4,1.34,8.394,8.394,0,0,0-14.446,5.819,8.549,8.549,0,0,0,.223,1.935.97.97,0,0,1-.719,1.19l-.028.006h-.214Zm9.106-12.99A9.835,9.835,0,0,0,104.9,46.8a.47.47,0,0,0,.458.363h.153a.47.47,0,0,0,.324-.572l0-.007a9.049,9.049,0,0,1-.237-2.052A8.894,8.894,0,0,1,120.9,38.376l.012.014a.471.471,0,0,0,.335.17.465.465,0,0,0,.353-.13.47.47,0,0,0-.011-.689l-.014-.013a9.835,9.835,0,0,0-7.12-3.05Z" transform="translate(-104.375 -34.427)" fill="#2aa901"/>
      <path id="Path_11347" data-name="Path 11347" d="M165.4,222.988a10.085,10.085,0,0,1-7.758-3.6.721.721,0,1,1,1.109-.922,8.644,8.644,0,0,0,15.293-5.561,8.786,8.786,0,0,0-.231-2,.722.722,0,0,1,1.4-.331,10.472,10.472,0,0,1,.267,2.327A10.085,10.085,0,0,1,165.4,222.988Z" transform="translate(-155.286 -202.795)" fill="#2aa900"/>
      <path id="Path_11347_-_Outline" data-name="Path 11347 - Outline" d="M165.364,223.238a10.335,10.335,0,0,1-7.917-3.691.972.972,0,0,1,.835-1.589.964.964,0,0,1,.658.347,8.394,8.394,0,0,0,14.85-5.4,8.55,8.55,0,0,0-.224-1.94.972.972,0,0,1,1.454-1.049.976.976,0,0,1,.438.6,10.742,10.742,0,0,1,.273,2.384,10.335,10.335,0,0,1-10.225,10.335h-.142Zm-7.17-4.784a.471.471,0,0,0-.363.773,9.835,9.835,0,0,0,7.491,3.512h.075a9.835,9.835,0,0,0,9.835-9.835,10.236,10.236,0,0,0-.26-2.271.465.465,0,0,0-.212-.29.473.473,0,0,0-.648.155.467.467,0,0,0-.058.354,9.049,9.049,0,0,1,.237,2.052,8.894,8.894,0,0,1-15.735,5.721.467.467,0,0,0-.319-.168Z" transform="translate(-155.286 -202.795)" fill="#2aa901"/>
      <path id="Path_11348" data-name="Path 11348" d="M158.22,407.542a.72.72,0,0,1-.72-.72v-3.6a.72.72,0,0,1,.72-.72h3.6a.72.72,0,0,1,0,1.441h-2.881v2.881a.72.72,0,0,1-.72.72Z" transform="translate(-155.313 -387.349)" fill="#2aa900"/>
      <path id="Path_11348_-_Outline" data-name="Path 11348 - Outline" d="M158.22,407.792a.977.977,0,0,1-.686-.284.964.964,0,0,1-.284-.686v-3.6a.97.97,0,0,1,.97-.97h3.6a.97.97,0,0,1,0,1.941h-2.631v2.631a.97.97,0,0,1-.97.97Zm0-5.042a.47.47,0,0,0-.47.47v3.6a.467.467,0,0,0,.138.333.47.47,0,0,0,.665,0,.467.467,0,0,0,.138-.333v-3.131h3.131a.47.47,0,1,0,0-.941Z" transform="translate(-155.313 -387.349)" fill="#2aa901"/>
      <path id="Path_11349" data-name="Path 11349" d="M424.322,40.043h-3.6a.72.72,0,0,1,0-1.441H423.6V35.721a.72.72,0,1,1,1.441,0v3.6a.72.72,0,0,1-.72.72Z" transform="translate(-407.008 -34.977)" fill="#2aa900"/>
      <path id="Path_11349_-_Outline" data-name="Path 11349 - Outline" d="M424.322,40.293h-3.6a.97.97,0,0,1,0-1.941h2.631V35.721a.97.97,0,1,1,1.941,0v3.6a.977.977,0,0,1-.284.686A.964.964,0,0,1,424.322,40.293Zm-3.6-1.441a.47.47,0,0,0,0,.941h3.6a.47.47,0,0,0,.47-.47v-3.6a.472.472,0,0,0-.235-.407.478.478,0,0,0-.47,0,.472.472,0,0,0-.235.407v3.131Z" transform="translate(-407.008 -34.977)" fill="#2aa901"/>
    </g>
  </g>
</svg>
