<svg xmlns="http://www.w3.org/2000/svg" width="53.659" height="45.993" viewBox="0 0 53.659 45.993">
  <path id="grey_2_" data-name="grey (2)" d="M30.441,38.175a2.455,2.455,0,0,1,.68,1.648,2.244,2.244,0,0,1-.182.9,2.3,2.3,0,0,1-.5.744,2.788,2.788,0,0,1-.734.506,2.5,2.5,0,0,1-.891.159,2.45,2.45,0,0,1-.864-.159,2.419,2.419,0,0,1-.736-.506,2.225,2.225,0,0,1-.494-.744,2.157,2.157,0,0,1-.186-.9,2.293,2.293,0,0,1,3.906-1.648m-3.72-6.859V18.967a2.108,2.108,0,0,1,4.216,0V31.316a2.108,2.108,0,0,1-4.216,0m25.07,14.823a1.759,1.759,0,0,1-1.211.529H7.117a1.792,1.792,0,0,1-.868-.236,1.739,1.739,0,0,1-.676-2.353L27.312,8.17a1.779,1.779,0,0,1,.6-.59,1.786,1.786,0,0,1,2.428.575L52.06,44.033a1.758,1.758,0,0,1,.238.859,1.732,1.732,0,0,1-.506,1.248m3.179-3.77L33.22,6.445a5.163,5.163,0,0,0-8.781,0L2.69,42.37a5.053,5.053,0,0,0,1.878,6.943,5.175,5.175,0,0,0,2.512.68h43.5a5.072,5.072,0,0,0,4.39-7.623" transform="translate(-2 -4)" fill="#ff7d00" fill-rule="evenodd"/>
</svg>
