<svg xmlns="http://www.w3.org/2000/svg" width="32.609" height="33.065" viewBox="0 0 32.609 33.065">
  <path id="Icon_awesome-check-square" data-name="Icon awesome-check-square" d="M29.318,34.4l-25.824.456A3.494,3.494,0,0,1,0,31.366V5.744a4.088,4.088,0,0,1,3.7-3.95l25.582.464a3.352,3.352,0,0,1,3.331,3.486V31.366A2.963,2.963,0,0,1,29.318,34.4Zm-15.1-6.682L27.61,14.329a1.165,1.165,0,0,0,0-1.647l-1.647-1.647a1.165,1.165,0,0,0-1.647,0L13.393,21.957l-5.1-5.1a1.165,1.165,0,0,0-1.647,0L5,18.5a1.165,1.165,0,0,0,0,1.647l7.57,7.57a1.165,1.165,0,0,0,1.647,0Z" transform="translate(0 -1.794)" fill="#b61828"/>
</svg>
