<svg id="Icon_ionic-ios-checkmark-circle-outline" data-name="Icon ionic-ios-checkmark-circle-outline" xmlns="http://www.w3.org/2000/svg" width="45.098" height="45.098" viewBox="0 0 45.098 45.098">
  <path id="Path_706" data-name="Path 706" d="M33.655,14.3l-1.908-1.962a.41.41,0,0,0-.3-.13h0a.394.394,0,0,0-.3.13L17.915,25.66,13.1,20.846a.419.419,0,0,0-.607,0l-1.93,1.93a.432.432,0,0,0,0,.618l6.071,6.071a1.92,1.92,0,0,0,1.268.618,2.012,2.012,0,0,0,1.258-.6h.011l14.494-14.57A.463.463,0,0,0,33.655,14.3Z" transform="translate(0.45 1.41)" fill="#0b961b"/>
  <path id="Path_707" data-name="Path 707" d="M25.924,6.41a19.506,19.506,0,1,1-13.8,5.713,19.384,19.384,0,0,1,13.8-5.713m0-3.035A22.549,22.549,0,1,0,48.473,25.924,22.545,22.545,0,0,0,25.924,3.375Z" transform="translate(-3.375 -3.375)" fill="#0b961b"/>
</svg>
