<svg xmlns="http://www.w3.org/2000/svg" width="124.401" height="88.721" viewBox="0 0 124.401 88.721">
  <g id="Group_12774" data-name="Group 12774" transform="translate(-403 -513.279)">
    <g id="Group_10907" data-name="Group 10907" transform="translate(-83.599 -60.941)">
      <path id="Vector" d="M33.173,27.029H1.228A1.23,1.23,0,0,1,0,25.8V1.228A1.23,1.23,0,0,1,1.228,0H33.173A1.23,1.23,0,0,1,34.4,1.228V25.8A1.23,1.23,0,0,1,33.173,27.029ZM2.764,2.764v21.5H31.637V2.764Z" transform="translate(486.599 574.22)" fill="#1d1d1b"/>
      <path id="Vector-2" data-name="Vector" d="M28.872,21.5H0V0H28.872V21.5ZM10.634,8.146a.305.305,0,0,0-.217.09l-8.25,8.255a.306.306,0,0,0,0,.433l1.408,1.417a.308.308,0,0,0,.435,0l6.623-6.623,4.392,4.4a.31.31,0,0,0,.433,0L26.861,4.7a.31.31,0,0,0,0-.433L25.447,2.856a.3.3,0,0,0-.216-.088.307.307,0,0,0-.217.088l-9.77,9.776-4.394-4.4A.3.3,0,0,0,10.634,8.146Z" transform="translate(489.363 576.985)" fill="rgba(166,166,165,0.15)"/>
      <path id="Vector-3" data-name="Vector" d="M1.5,15.574a.308.308,0,0,0,.434,0L8.555,8.951l4.392,4.4a.308.308,0,0,0,.434,0l11.4-11.411a.308.308,0,0,0,0-.434L23.372.089a.308.308,0,0,0-.434,0L13.166,9.864l-4.392-4.4a.308.308,0,0,0-.434,0L.089,13.723a.308.308,0,0,0,0,.434L1.5,15.574Z" transform="translate(491.439 579.752)" fill="#1d1d1b"/>
    </g>
    <g id="Group_10898" data-name="Group 10898" transform="translate(412.843 517.586)">
      <g id="Group_10796" data-name="Group 10796" transform="translate(67.932 7.663)">
        <ellipse id="Ellipse_1" data-name="Ellipse 1" cx="23.172" cy="23.172" rx="23.172" ry="23.172" transform="translate(0 0.39)" fill="#fff"/>
        <path id="Ellipse_1_-_Outline" data-name="Ellipse 1 - Outline" d="M23.172,2a21.178,21.178,0,0,0-8.24,40.681A21.178,21.178,0,0,0,31.413,3.663,21.038,21.038,0,0,0,23.172,2m0-2A23.172,23.172,0,1,1,0,23.172,23.172,23.172,0,0,1,23.172,0Z" transform="translate(0 0.39)" fill="#1d1d1b"/>
        <g id="Group_10793" data-name="Group 10793" transform="translate(3.233 2.545)">
          <ellipse id="Ellipse_3" data-name="Ellipse 3" cx="20.478" cy="20.478" rx="20.478" ry="20.478" transform="translate(0 0)" fill="rgba(166,166,165,0.15)"/>
        </g>
        <g id="Group_10791" data-name="Group 10791" transform="translate(0)">
          <path id="Path_708" data-name="Path 708" d="M209.253,115.94a23.313,23.313,0,1,0,23.313,23.313A23.342,23.342,0,0,0,209.253,115.94Zm21.79,22.567h-5.657v1.508h5.657a21.612,21.612,0,0,1-3.684,11.377H191.146a21.611,21.611,0,0,1-3.684-11.377h5.611v-1.508h-5.611a21.722,21.722,0,0,1,5.844-14.1l3.963,3.963,1.057-1.057-3.963-3.963a21.786,21.786,0,0,1,14.1-5.875v5.611h1.508v-5.626a21.686,21.686,0,0,1,14.144,5.844l-3.994,3.994,1.057,1.072,4.01-3.994a21.738,21.738,0,0,1,5.859,14.128Zm-21.79,22.552a21.736,21.736,0,0,1-17-8.175h34.006a21.734,21.734,0,0,1-17,8.175Z" transform="translate(-185.94 -115.94)" fill="#1d1d1b"/>
          <path id="Path_709" data-name="Path 709" d="M13.2,0,6.714,6.481A4.1,4.1,0,1,0,7.709,7.6l6.559-6.559ZM4.134,12.387A2.642,2.642,0,1,1,6.776,9.745,2.64,2.64,0,0,1,4.134,12.387Z" transform="translate(26.662 13.362) rotate(45)" fill="#1d1d1b"/>
          <path id="Path_710" data-name="Path 710" d="M304.5,398.34h12.9v1.508H304.5Z" transform="translate(-287.652 -358.21)" fill="#1d1d1b"/>
        </g>
      </g>
      <g id="Group_10794" data-name="Group 10794" transform="translate(7.019)">
        <circle id="Ellipse_1-2" data-name="Ellipse 1" cx="42" cy="42" r="42" transform="translate(0.113 0.414)" fill="#fff"/>
        <path id="Ellipse_1_-_Outline-2" data-name="Ellipse 1 - Outline" d="M42,2A40.011,40.011,0,0,0,26.431,78.857,40.011,40.011,0,0,0,57.569,5.143,39.748,39.748,0,0,0,42,2m0-2A42,42,0,1,1,0,42,42,42,0,0,1,42,0Z" transform="translate(0.113 0.414)" fill="#1d1d1b"/>
        <g id="Group_10793-2" data-name="Group 10793" transform="translate(6.142 4.387)">
          <ellipse id="Ellipse_3-2" data-name="Ellipse 3" cx="36.5" cy="37.5" rx="36.5" ry="37.5" transform="translate(-0.028 0.027)" fill="rgba(166,166,165,0.1)"/>
        </g>
        <g id="Group_10791-2" data-name="Group 10791" transform="translate(0 0)">
          <path id="Path_708-2" data-name="Path 708" d="M227.957,115.94a42.017,42.017,0,1,0,42.017,42.017A42.068,42.068,0,0,0,227.957,115.94Zm39.271,40.672h-10.2v2.717h10.2a38.95,38.95,0,0,1-6.639,20.5H195.323a38.95,38.95,0,0,1-6.639-20.5H198.8v-2.717H188.684a39.15,39.15,0,0,1,10.532-25.406l7.143,7.143,1.9-1.9-7.143-7.143a39.264,39.264,0,0,1,25.406-10.588v10.112h2.717v-10.14a39.083,39.083,0,0,1,25.49,10.532l-7.2,7.2,1.9,1.933,7.227-7.2a39.179,39.179,0,0,1,10.56,25.463Zm-39.271,40.644a39.173,39.173,0,0,1-30.646-14.734H258.6a39.17,39.17,0,0,1-30.646,14.734Z" transform="translate(-185.94 -115.94)" fill="#1d1d1b"/>
          <path id="Path_709-2" data-name="Path 709" d="M343.263,210.11l-11.681,11.681a7.4,7.4,0,1,0,1.793,2.017L345.2,211.987Zm-16.331,22.325a4.762,4.762,0,1,1,4.762-4.762A4.758,4.758,0,0,1,326.932,232.435Z" transform="translate(-285.28 -185.992)" fill="#1d1d1b"/>
          <path id="Path_710-2" data-name="Path 710" d="M304.5,398.34h23.25v2.717H304.5Z" transform="translate(-274.136 -326.016)" fill="#1d1d1b"/>
        </g>
      </g>
    </g>
  </g>
</svg>
