<svg xmlns="http://www.w3.org/2000/svg" width="16" height="15.999" viewBox="0 0 16 15.999">
  <g id="Group_12350" data-name="Group 12350" transform="translate(-1528 -1000)">
    <g id="grey" transform="translate(1528 1000)">
      <path id="Path_976" data-name="Path 976" d="M7.594,10.88A.571.571,0,0,0,8.22,11a.576.576,0,0,0,.185-.124l4.126-4.126a.573.573,0,0,0-.811-.81L8.572,9.092V.573a.573.573,0,1,0-1.145,0V9.092L4.279,5.944a.573.573,0,1,0-.81.81L7.595,10.88Zm8.405-.4v3.3A2.225,2.225,0,0,1,13.777,16H2.223A2.225,2.225,0,0,1,0,13.776v-3.3a.573.573,0,1,1,1.146,0v3.3a1.078,1.078,0,0,0,1.077,1.077H13.777a1.078,1.078,0,0,0,1.077-1.077v-3.3a.573.573,0,0,1,1.146,0Z" fill="#1d1d1b" fill-rule="evenodd"/>
    </g>
  </g>
</svg>
