<svg xmlns="http://www.w3.org/2000/svg" width="21.307" height="21.308" viewBox="0 0 21.307 21.308">
  <g id="Icon_feather-edit" data-name="Icon feather-edit" transform="translate(0.75 0.75)">
    <path id="Path_875" data-name="Path 875" d="M18.751,24.47H4.969A2.722,2.722,0,0,1,2.25,21.751V7.969A2.722,2.722,0,0,1,4.969,5.25H11.86a.75.75,0,1,1,0,1.5H4.969A1.22,1.22,0,0,0,3.75,7.969V21.751A1.22,1.22,0,0,0,4.969,22.97H18.751a1.22,1.22,0,0,0,1.219-1.219V14.86a.75.75,0,0,1,1.5,0v6.891A2.722,2.722,0,0,1,18.751,24.47Z" transform="translate(-3 -3.912)" fill="#8d8d8d"/>
    <path id="Path_876" data-name="Path 876" d="M23.813,2.068A2.838,2.838,0,0,1,25.82,6.913l-9.352,9.352a.75.75,0,0,1-.348.2l-3.938.984a.75.75,0,0,1-.91-.91l.984-3.938a.75.75,0,0,1,.2-.348L21.806,2.9A2.82,2.82,0,0,1,23.813,2.068Zm-8.259,12.99,9.205-9.205A1.338,1.338,0,0,0,22.867,3.96l-9.205,9.205-.631,2.523Z" transform="translate(-6.093 -2.818)" fill="#8d8d8d"/>
  </g>
</svg>
