<svg xmlns="http://www.w3.org/2000/svg" width="32" height="27.428" viewBox="0 0 32 27.428">
  <path id="grey_2_" data-name="grey (2)" d="M18.961,24.38a1.464,1.464,0,0,1,.406.983,1.338,1.338,0,0,1-.109.539,1.369,1.369,0,0,1-.3.443,1.663,1.663,0,0,1-.438.3,1.493,1.493,0,0,1-.531.095,1.461,1.461,0,0,1-.515-.095,1.442,1.442,0,0,1-.439-.3,1.327,1.327,0,0,1-.295-.443,1.286,1.286,0,0,1-.111-.539,1.367,1.367,0,0,1,2.329-.983m-2.218-4.09V12.926a1.257,1.257,0,0,1,2.514,0V20.29a1.257,1.257,0,0,1-2.514,0m14.951,8.84a1.049,1.049,0,0,1-.722.315H5.051a1.069,1.069,0,0,1-.518-.141,1.037,1.037,0,0,1-.4-1.4L17.095,6.487a1.061,1.061,0,0,1,.357-.352,1.065,1.065,0,0,1,1.448.343l12.954,21.4a1.049,1.049,0,0,1,.142.512,1.033,1.033,0,0,1-.3.744m1.9-2.248L20.618,5.458a3.079,3.079,0,0,0-5.237,0L2.411,26.882a3.013,3.013,0,0,0,1.12,4.141,3.086,3.086,0,0,0,1.5.406H30.971a3.025,3.025,0,0,0,2.618-4.546" transform="translate(-2 -4)" fill="#da1e28" fill-rule="evenodd"/>
</svg>
