<svg xmlns="http://www.w3.org/2000/svg" width="24" height="24" viewBox="0 0 24 24">
  <g id="Group_11863" data-name="Group 11863" transform="translate(-369 -869)">
    <rect id="Rectangle_1116" data-name="Rectangle 1116" width="24" height="24" transform="translate(369 869)" fill="#fff"/>
    <g id="Icon_ionic-ios-expand" data-name="Icon ionic-ios-expand" transform="translate(368.5 868.5)">
      <path id="Path_921" data-name="Path 921" d="M6.619,5.726h3.4a.607.607,0,0,0,.608-.608V5.108A.607.607,0,0,0,10.02,4.5H5.108a.607.607,0,0,0-.608.608V10.02a.607.607,0,0,0,.608.608h.009a.607.607,0,0,0,.608-.608v-3.4l5.126,5.091a.6.6,0,0,0,.429.175.589.589,0,0,0,.429-.179.608.608,0,0,0,0-.858Z" transform="translate(0 0)"/>
      <path id="Path_922" data-name="Path 922" d="M26.413,4.5H21.5a.607.607,0,0,0-.608.608v.009a.607.607,0,0,0,.608.608h3.4l-5.091,5.126a.608.608,0,0,0,.858.862l5.126-5.1v3.4a.607.607,0,0,0,.608.608h.009a.607.607,0,0,0,.608-.608V5.108A.607.607,0,0,0,26.413,4.5Z" transform="translate(-6.521)"/>
      <path id="Path_923" data-name="Path 923" d="M11.28,19.631a.6.6,0,0,0-.429.175L5.726,24.9V21.5a.607.607,0,0,0-.608-.608H5.108A.607.607,0,0,0,4.5,21.5v4.911a.607.607,0,0,0,.608.608H10.02a.607.607,0,0,0,.608-.608V26.4a.607.607,0,0,0-.608-.608h-3.4l5.091-5.126a.608.608,0,0,0-.429-1.037Z" transform="translate(0 -6.52)"/>
      <path id="Path_924" data-name="Path 924" d="M26.413,20.895H26.4a.607.607,0,0,0-.608.608v3.4L20.67,19.813a.6.6,0,0,0-.429-.175.589.589,0,0,0-.429.179.608.608,0,0,0,0,.858L24.9,25.8H21.5a.607.607,0,0,0-.608.608v.009a.607.607,0,0,0,.608.608h4.911a.607.607,0,0,0,.608-.608V21.5A.607.607,0,0,0,26.413,20.895Z" transform="translate(-6.521 -6.523)"/>
    </g>
  </g>
</svg>
