<svg xmlns="http://www.w3.org/2000/svg" width="62.891" height="76.131" viewBox="0 0 62.891 76.131">
  <g id="Group_14469" data-name="Group 14469" transform="translate(-923.264 -507.004)">
    <g id="Group_14435" data-name="Group 14435" transform="translate(934.051 529.791)">
      <line id="Line_519" data-name="Line 519" x2="38.655" transform="translate(0 27.832)" fill="none" stroke="#a6a6a5" stroke-linecap="round" stroke-width="1.5"/>
      <line id="Line_520" data-name="Line 520" x2="29.378" transform="translate(0 32.47)" fill="none" stroke="#a6a6a5" stroke-linecap="round" stroke-width="1.5"/>
      <line id="Line_521" data-name="Line 521" x2="34.017" transform="translate(0 37.109)" fill="none" stroke="#a6a6a5" stroke-linecap="round" stroke-width="1.5"/>
      <line id="Line_522" data-name="Line 522" x2="29.378" transform="translate(0 41.748)" fill="none" stroke="#a6a6a5" stroke-linecap="round" stroke-width="1.5"/>
      <g id="noun-diagram-1025036" transform="translate(0 0)">
        <path id="Path_11357" data-name="Path 11357" d="M589.087,148.75H583.97a.64.64,0,1,0,0,1.279h5.117a.64.64,0,1,0,0-1.279" transform="translate(-551.346 -146.191)" fill="#a6a6a5" fill-rule="evenodd"/>
        <path id="Path_11358" data-name="Path 11358" d="M583.972,103.364h5.117a.64.64,0,1,0,0-1.28h-5.117a.64.64,0,1,0,0,1.28" transform="translate(-551.348 -102.084)" fill="#a6a6a5" fill-rule="evenodd"/>
        <path id="Path_11359" data-name="Path 11359" d="M589.087,195.42H583.97a.64.64,0,1,0,0,1.279h5.117a.64.64,0,1,0,0-1.279" transform="translate(-551.346 -190.302)" fill="#a6a6a5" fill-rule="evenodd"/>
        <path id="Path_11360" data-name="Path 11360" d="M215.429,153.371l3.341-3.341h4.853a.64.64,0,1,0,0-1.279h-5.117a.643.643,0,0,0-.452.187l-4.326,4.326c-.343-.012-.684-.036-1.029-.036a30.01,30.01,0,0,0-7.912,1.071l5.629,10.6a17.459,17.459,0,0,1,4.662.009l5.621-10.58a30.316,30.316,0,0,0-5.268-.952" transform="translate(-193.557 -146.191)" fill="#a6a6a5" fill-rule="evenodd"/>
        <path id="Path_11361" data-name="Path 11361" d="M422.289,257.23l-5.539,10.426a18.49,18.49,0,0,1,6.376,2.61.639.639,0,0,0,.76-.046l8.068-6.782a.641.641,0,0,0-.009-.987,30.07,30.07,0,0,0-9.656-5.221" transform="translate(-393.899 -248.723)" fill="#a6a6a5" fill-rule="evenodd"/>
        <path id="Path_11362" data-name="Path 11362" d="M.233,261.967a.639.639,0,0,0-.009.987l8.068,6.782a.639.639,0,0,0,.761.046,18.464,18.464,0,0,1,6.466-2.626L9.973,256.718a30.066,30.066,0,0,0-9.741,5.249" transform="translate(0.004 -248.239)" fill="#a6a6a5" fill-rule="evenodd"/>
      </g>
    </g>
    <g id="noun-file-5518511" transform="translate(858.264 507.004)">
      <path id="Path_11365" data-name="Path 11365" d="M147.91,11.668H182.95a8.273,8.273,0,0,1,8.276,8.275V79.524A8.276,8.276,0,0,1,182.95,87.8H136.61a8.273,8.273,0,0,1-8.276-8.275V31.244a4.965,4.965,0,0,1,1.455-3.51l14.61-14.61a4.963,4.963,0,0,1,3.51-1.455ZM131.644,33.182V79.524a4.966,4.966,0,0,0,4.965,4.965h46.34a4.965,4.965,0,0,0,4.965-4.965V19.943a4.966,4.966,0,0,0-4.965-4.965h-33.1a1.656,1.656,0,0,0-1.655,1.655v6.62a8.273,8.273,0,0,1-8.275,8.276H133.3a1.655,1.655,0,0,0-1.655,1.655Zm13.24-15.866v5.935a4.966,4.966,0,0,1-4.965,4.965h-5.935Z" transform="translate(-63.334 -11.668)" fill="#a6a6a5" fill-rule="evenodd"/>
    </g>
  </g>
</svg>
