<svg xmlns="http://www.w3.org/2000/svg" width="13" height="13" viewBox="0 0 13 13">
  <g id="Icon_feather-grid" data-name="Icon feather-grid" transform="translate(-4 -4)">
    <path id="Path_836" data-name="Path 836" d="M4.5,4H9.167a.5.5,0,0,1,.5.5V9.167a.5.5,0,0,1-.5.5H4.5a.5.5,0,0,1-.5-.5V4.5A.5.5,0,0,1,4.5,4ZM8.667,5H5V8.667H8.667Z" fill="#fff"/>
    <path id="Path_837" data-name="Path 837" d="M21,4h4.667a.5.5,0,0,1,.5.5V9.167a.5.5,0,0,1-.5.5H21a.5.5,0,0,1-.5-.5V4.5A.5.5,0,0,1,21,4Zm4.167,1H21.5V8.667h3.667Z" transform="translate(-9.167)" fill="#fff"/>
    <path id="Path_838" data-name="Path 838" d="M21,20.5h4.667a.5.5,0,0,1,.5.5v4.667a.5.5,0,0,1-.5.5H21a.5.5,0,0,1-.5-.5V21A.5.5,0,0,1,21,20.5Zm4.167,1H21.5v3.667h3.667Z" transform="translate(-9.167 -9.167)" fill="#fff"/>
    <path id="Path_839" data-name="Path 839" d="M4.5,20.5H9.167a.5.5,0,0,1,.5.5v4.667a.5.5,0,0,1-.5.5H4.5a.5.5,0,0,1-.5-.5V21A.5.5,0,0,1,4.5,20.5Zm4.167,1H5v3.667H8.667Z" transform="translate(0 -9.167)" fill="#fff"/>
  </g>
</svg>
