<svg xmlns="http://www.w3.org/2000/svg" width="17.425" height="17.425" viewBox="0 0 17.425 17.425">
  <g id="noun-clock-3818857" transform="translate(-78.985 -8.988)">
    <path id="Path_11329" data-name="Path 11329" d="M87.7,9.363a8.347,8.347,0,1,0,5.893,2.445A8.338,8.338,0,0,0,87.7,9.363Zm0,15.956a7.627,7.627,0,1,1,5.385-2.234A7.619,7.619,0,0,1,87.7,25.32Z" transform="translate(0)" fill="#fff" stroke="#fff" stroke-width="0.75"/>
    <path id="Path_11330" data-name="Path 11330" d="M339.111,168.472v-3.285a.388.388,0,1,0-.777,0v3.446a.389.389,0,0,0,.114.275l2.483,2.483s0,0,0,0,.4.149.547,0a.388.388,0,0,0,0-.547Z" transform="translate(-251.137 -150.308)" fill="#fff" stroke="#fff" stroke-width="0.75"/>
    <path id="Path_11331" data-name="Path 11331" d="M338.72,59.7a.388.388,0,0,0,.388-.388V58.72a.388.388,0,1,0-.777,0v.591A.388.388,0,0,0,338.72,59.7Z" transform="translate(-251.023 -47.339)" fill="#fff" stroke="#fff" stroke-width="0.75"/>
    <path id="Path_11332" data-name="Path 11332" d="M338.72,468.31a.388.388,0,0,0-.388.388v.591a.388.388,0,1,0,.777,0V468.7A.388.388,0,0,0,338.72,468.31Z" transform="translate(-251.023 -445.012)" fill="#fff" stroke="#fff" stroke-width="0.75"/>
    <path id="Path_11333" data-name="Path 11333" d="M125.449,272.2h-.591a.388.388,0,0,0,0,.777h.591a.388.388,0,1,0,0-.777Z" transform="translate(-43.609 -254.769)" fill="#fff" stroke="#fff" stroke-width="0.75"/>
    <path id="Path_11334" data-name="Path 11334" d="M534.84,272.975h.591a.388.388,0,0,0,0-.777h-.591a.388.388,0,1,0,0,.777Z" transform="translate(-441.285 -254.767)" fill="#fff" stroke="#fff" stroke-width="0.75"/>
  </g>
</svg>
