<svg xmlns="http://www.w3.org/2000/svg" width="22" height="22" viewBox="0 0 22 22">
  <g id="Icon_ionic-ios-help-circle-outline" data-name="Icon ionic-ios-help-circle-outline" transform="translate(-3.375 -3.375)">
    <path id="Path_816" data-name="Path 816" d="M14.375,4.856A9.516,9.516,0,1,1,7.643,7.643a9.456,9.456,0,0,1,6.732-2.787m0-1.481a11,11,0,1,0,11,11,11,11,0,0,0-11-11Z" fill="#fff"/>
    <path id="Path_817" data-name="Path 817" d="M16.922,11.25c1.983,0,3.348,1.1,3.348,2.681a2.587,2.587,0,0,1-1.486,2.348c-.92.534-1.232.925-1.232,1.6V18.3H15.716l-.016-.455a2.2,2.2,0,0,1,1.248-2.327c.894-.534,1.269-.873,1.269-1.528a1.284,1.284,0,0,0-1.423-1.137,1.338,1.338,0,0,0-1.417,1.3H13.5C13.537,12.45,14.8,11.25,16.922,11.25Zm-1.391,9.064A1.135,1.135,0,1,1,16.663,21.4,1.108,1.108,0,0,1,15.531,20.314Z" transform="translate(-2.51 -1.952)" fill="#fff"/>
  </g>
</svg>
