<svg xmlns="http://www.w3.org/2000/svg" width="20.75" height="14.1" viewBox="0 0 20.75 14.1">
  <g id="noun-mail-203567" transform="translate(-121.704 -128.983)">
    <path id="Path_11296" data-name="Path 11296" d="M140.348,142.708H123.785A1.709,1.709,0,0,1,122.079,141v-9.938a1.709,1.709,0,0,1,1.706-1.706h16.588a1.709,1.709,0,0,1,1.706,1.706v9.913a1.752,1.752,0,0,1-1.73,1.731ZM123.785,129.9a1.161,1.161,0,0,0-1.162,1.162v9.913a1.161,1.161,0,0,0,1.162,1.162h16.588a1.161,1.161,0,0,0,1.162-1.162v-9.913a1.161,1.161,0,0,0-1.162-1.162Z" transform="translate(0)" fill="#fff" stroke="#fff" stroke-width="0.75"/>
    <path id="Path_11297" data-name="Path 11297" d="M146.771,282.415H130.207a1.76,1.76,0,0,1-1.236-.519l-.173-.2,6.18-6.18,2.695,2.695a1.2,1.2,0,0,0,1.656,0l2.695-2.695,6.18,6.18-.173.2a1.864,1.864,0,0,1-1.261.519Zm-17.206-.742a1.225,1.225,0,0,0,.643.2H146.8a1.225,1.225,0,0,0,.643-.2l-5.414-5.414-2.324,2.324a1.716,1.716,0,0,1-2.423,0l-2.324-2.324Z" transform="translate(-6.422 -139.707)" fill="#fff" stroke="#fff" stroke-width="0.75"/>
    <path id="Path_11298" data-name="Path 11298" d="M135.814,139.4a1.68,1.68,0,0,1-1.211-.494l-8.6-8.628.124-.2a1.722,1.722,0,0,1,1.384-.717H144.1a1.722,1.722,0,0,1,1.384.717l.124.2-8.578,8.6a1.748,1.748,0,0,1-1.211.519Zm-9.1-9.172,8.257,8.257a1.2,1.2,0,0,0,1.656,0l8.257-8.257a1.2,1.2,0,0,0-.816-.321H127.532A1.2,1.2,0,0,0,126.716,130.228Z" transform="translate(-3.747 -0.004)" fill="#fff" stroke="#fff" stroke-width="0.75"/>
  </g>
</svg>
