<svg xmlns="http://www.w3.org/2000/svg" width="20.829" height="22" viewBox="0 0 20.829 22">
  <g id="Group_10917" data-name="Group 10917" transform="translate(-1686.583 -15)">
    <path id="Vector" d="M10.421,22h-.008a10.994,10.994,0,0,1-1.952-.174L8.4,21.813a.785.785,0,0,1-.634-.631l-.388-2.1a8.629,8.629,0,0,1-2.42-1.4l-.005,0-.005,0-2.011.715a.8.8,0,0,1-.258.043.824.824,0,0,1-.149-.014.783.783,0,0,1-.454-.262l-.044-.052A10.919,10.919,0,0,1,.069,14.72l-.023-.064a.789.789,0,0,1,.229-.865L1.9,12.4a8.726,8.726,0,0,1,0-2.8L.276,8.207.258,8.192.241,8.176a.79.79,0,0,1-.194-.833l.023-.064A10.932,10.932,0,0,1,2.026,3.893l.044-.052a.788.788,0,0,1,.6-.278.772.772,0,0,1,.261.045l2.011.715a8.611,8.611,0,0,1,2.431-1.41l.388-2.1A.785.785,0,0,1,8.4.186L8.462.173a11.087,11.087,0,0,1,3.9,0l.066.012a.784.784,0,0,1,.623.591.133.133,0,0,1,.008.03l0,.01L13.452,2.9A8.665,8.665,0,0,1,15.9,4.317l2-.709a.787.787,0,0,1,.261-.044.8.8,0,0,1,.207.027.779.779,0,0,1,.394.25l.044.052A10.866,10.866,0,0,1,20.76,7.279l.022.064a.807.807,0,0,1,.047.294.785.785,0,0,1-.275.57L18.945,9.583a.044.044,0,0,0,0,.008.043.043,0,0,1,0,.009c0,.027.008.054.012.081s.009.055.012.081a8.729,8.729,0,0,1-.027,2.659l0,0,1.6,1.373a.8.8,0,0,1,.27.513.762.762,0,0,1-.041.346l-.022.064A10.97,10.97,0,0,1,18.8,18.106l-.044.052a.786.786,0,0,1-.862.233l-2-.71a8.576,8.576,0,0,1-2.448,1.414l-.386,2.088a.788.788,0,0,1-.634.631l-.066.012A10.879,10.879,0,0,1,10.421,22ZM5.3,15.68h0l.771.635A6.853,6.853,0,0,0,8,17.437l.929.356.439,2.387a9.193,9.193,0,0,0,2.087,0L11.9,17.8l.935-.351a6.862,6.862,0,0,0,1.947-1.125l.771-.634,2.278.808a9.1,9.1,0,0,0,1.047-1.808L17.039,13.12l.162-.984a6.91,6.91,0,0,0,0-2.264l-.159-.98,1.834-1.569A9.318,9.318,0,0,0,17.83,5.516l-2.279.808L14.78,5.69a6.909,6.909,0,0,0-1.947-1.125L11.9,4.215l-.439-2.382a9.3,9.3,0,0,0-2.087,0l-.44,2.387L8,4.571A6.853,6.853,0,0,0,6.068,5.693L5.3,6.329,3,5.514A9.088,9.088,0,0,0,1.958,7.321L3.812,8.9l-.16.983A6.785,6.785,0,0,0,3.561,11a7.1,7.1,0,0,0,.091,1.116l.16.983L1.958,14.688A9.231,9.231,0,0,0,3,16.494L5.3,15.68Z" transform="translate(1686.583 15)" fill="#fff"/>
    <path id="Vector-2" data-name="Vector" d="M4.321,8.644A4.323,4.323,0,1,1,8.644,4.321,4.333,4.333,0,0,1,4.321,8.644Zm0-7.072a2.75,2.75,0,0,0,0,5.5h.007a2.75,2.75,0,0,0-.007-5.5Z" transform="translate(1692.678 21.436)" fill="#fff"/>
  </g>
</svg>
