<svg xmlns="http://www.w3.org/2000/svg" width="21.924" height="18" viewBox="0 0 21.924 18">
  <g id="Group_11257" data-name="Group 11257" transform="translate(-1713.078 -49.5)">
    <path id="Vector" d="M4.183,14.752H5.444a.182.182,0,0,1,.181.18v1.449H16.383V1.62H5.622V3.068a.182.182,0,0,1-.18.18H4.18A.181.181,0,0,1,4,3.068V.72A.718.718,0,0,1,4.719,0H17.283A.718.718,0,0,1,18,.72V17.281a.718.718,0,0,1-.72.719H4.722A.718.718,0,0,1,4,17.281V14.932A.18.18,0,0,1,4.183,14.752Z" transform="translate(1717 49.5)" fill="#fff"/>
    <path id="_16B4D933-04E3-4786-87D4-F0DA58FCB9AA" data-name="16B4D933-04E3-4786-87D4-F0DA58FCB9AA" d="M13.911,3.318,9.771.051a.234.234,0,0,0-.379.184V2.452H.233A.234.234,0,0,0,0,2.685V4.319a.234.234,0,0,0,.233.233H9.392V6.769a.234.234,0,0,0,.379.184l4.139-3.267a.233.233,0,0,0,0-.368Z" transform="translate(1713.078 54.998)" fill="#fff"/>
  </g>
</svg>
