<svg xmlns="http://www.w3.org/2000/svg" width="20.367" height="19.51" viewBox="0 0 20.367 19.51">
  <g id="Icon_feather-shopping-cart" data-name="Icon feather-shopping-cart" transform="translate(-0.75 -0.75)">
    <path id="Path_820" data-name="Path 820" d="M13.715,30.858A.858.858,0,1,1,12.858,30,.858.858,0,0,1,13.715,30.858Z" transform="translate(-4.497 -12.206)" fill="none" stroke="#fff" stroke-linecap="round" stroke-linejoin="round" stroke-width="1.5"/>
    <path id="Path_821" data-name="Path 821" d="M30.215,30.858A.858.858,0,1,1,29.358,30,.858.858,0,0,1,30.215,30.858Z" transform="translate(-11.563 -12.206)" fill="none" stroke="#fff" stroke-linecap="round" stroke-linejoin="round" stroke-width="1.5"/>
    <path id="Path_822" data-name="Path 822" d="M1.5,1.5H4.93l2.3,11.483a1.715,1.715,0,0,0,1.715,1.381H17.28A1.715,1.715,0,0,0,19,12.983l1.372-7.2H5.788" transform="translate(0 0)" fill="none" stroke="#fff" stroke-linecap="round" stroke-linejoin="round" stroke-width="1.5"/>
  </g>
</svg>
