<svg id="Icon_ionic-ios-checkmark-circle-outline" data-name="Icon ionic-ios-checkmark-circle-outline" xmlns="http://www.w3.org/2000/svg" width="32.148" height="32.148" viewBox="0 0 32.148 32.148">
  <path id="Path_706" data-name="Path 706" d="M26.988,13.7l-1.36-1.4a.292.292,0,0,0-.216-.093h0a.281.281,0,0,0-.216.093l-9.428,9.5-3.431-3.431a.3.3,0,0,0-.433,0l-1.376,1.376a.308.308,0,0,0,0,.44l4.328,4.328a1.369,1.369,0,0,0,.9.44,1.434,1.434,0,0,0,.9-.425h.008L27,14.138A.33.33,0,0,0,26.988,13.7Z" transform="translate(-2.675 -2.5)" fill="#42be65"/>
  <path id="Path_707" data-name="Path 707" d="M19.449,5.539A13.9,13.9,0,1,1,9.611,9.611a13.818,13.818,0,0,1,9.838-4.073m0-2.164A16.074,16.074,0,1,0,35.523,19.449,16.072,16.072,0,0,0,19.449,3.375Z" transform="translate(-3.375 -3.375)" fill="#42be65"/>
</svg>
