<svg xmlns="http://www.w3.org/2000/svg" width="21.984" height="22.025" viewBox="0 0 21.984 22.025">
  <path id="Icon_feather-phone" data-name="Icon feather-phone" d="M23.65,18.366v3.09a2.06,2.06,0,0,1-2.245,2.06,20.381,20.381,0,0,1-8.888-3.162,20.082,20.082,0,0,1-6.179-6.179A20.381,20.381,0,0,1,3.176,5.245,2.06,2.06,0,0,1,5.226,3h3.09a2.06,2.06,0,0,1,2.06,1.771A13.223,13.223,0,0,0,11.1,7.665a2.06,2.06,0,0,1-.463,2.173L9.324,11.146A16.478,16.478,0,0,0,15.5,17.325l1.308-1.308a2.06,2.06,0,0,1,2.173-.463,13.223,13.223,0,0,0,2.894.721,2.06,2.06,0,0,1,1.771,2.091Z" transform="translate(-2.417 -2.25)" fill="none" stroke="#fff" stroke-linecap="round" stroke-linejoin="round" stroke-width="1.5"/>
</svg>
