<svg xmlns="http://www.w3.org/2000/svg" width="17.438" height="20.857" viewBox="0 0 17.438 20.857">
  <path id="Vector" d="M8.712,20.857a1.023,1.023,0,0,1-.52-.142,20.977,20.977,0,0,1-4.416-3.587,15.484,15.484,0,0,1-2.6-3.705A11.059,11.059,0,0,1,0,8.531,8.32,8.32,0,0,1,.689,5.2,8.49,8.49,0,0,1,2.561,2.491,8.867,8.867,0,0,1,12.106.67a8.649,8.649,0,0,1,2.77,1.823,8.454,8.454,0,0,1,1.872,2.712,8.32,8.32,0,0,1,.689,3.328,10.983,10.983,0,0,1-1.179,4.889,15.422,15.422,0,0,1-2.6,3.705,20.973,20.973,0,0,1-4.415,3.587,1.03,1.03,0,0,1-.525.142ZM8.718,1.687A7.086,7.086,0,0,0,3.74,3.7,6.72,6.72,0,0,0,1.688,8.534a10.669,10.669,0,0,0,2.936,7.015,19.632,19.632,0,0,0,4.095,3.51c1.649-1.048,7.032-4.9,7.032-10.526A6.708,6.708,0,0,0,13.7,3.7,7.079,7.079,0,0,0,8.718,1.687Zm0,11.156a4.125,4.125,0,1,1,4.126-4.126A4.13,4.13,0,0,1,8.718,12.844Zm0-6.75a2.625,2.625,0,0,0,0,5.25h.007a2.59,2.59,0,0,0,1-.2A2.625,2.625,0,0,0,8.718,6.094Z" transform="translate(0 0)" fill="#fff"/>
</svg>
