<svg xmlns="http://www.w3.org/2000/svg" width="18.75" height="18.75" viewBox="0 0 18.75 18.75">
  <path id="Vector" d="M18.563,18.751H17.25a.188.188,0,0,1-.188-.181,5.347,5.347,0,0,0-5.343-5.163h-.014A5.348,5.348,0,0,0,6.375,18.57a.187.187,0,0,1-.187.181H4.875a.2.2,0,0,1-.073-.014.181.181,0,0,1-.061-.042.177.177,0,0,1-.041-.062.2.2,0,0,1-.014-.074,7.04,7.04,0,0,1,4.079-6.194,4.688,4.688,0,0,1,2.878-8.332h.071a4.688,4.688,0,0,1,2.952,8.333,7.049,7.049,0,0,1,4.082,6.194.189.189,0,0,1-.013.074.177.177,0,0,1-.041.062.181.181,0,0,1-.061.042A.2.2,0,0,1,18.563,18.751ZM11.715,5.719h-.027a2.986,2.986,0,0,0-2.119.907,3.019,3.019,0,0,0-.851,2.062A2.976,2.976,0,0,0,9.6,10.841a2.974,2.974,0,0,0,2.121.878h.013a2.987,2.987,0,0,0,2.11-.878,3,3,0,0,0-.021-4.263A3.033,3.033,0,0,0,11.715,5.719ZM1.5,14.72H.187A.189.189,0,0,1,.114,14.7a.183.183,0,0,1-.061-.041A.216.216,0,0,1,.013,14.6.189.189,0,0,1,0,14.527a7.048,7.048,0,0,1,4.085-6.2A4.694,4.694,0,0,1,7.038,0h.073a4.684,4.684,0,0,1,4.118,2.576.189.189,0,0,1-.148.272,5.815,5.815,0,0,0-1.3.291.18.18,0,0,1-.06.01.189.189,0,0,1-.158-.086,3.061,3.061,0,0,0-.478-.571,2.985,2.985,0,0,0-2.016-.806H7.039A3,3,0,0,0,4.946,6.835a2.959,2.959,0,0,0,.865.589.189.189,0,0,1,.105.206,5.984,5.984,0,0,0-.1,1.09,6.088,6.088,0,0,0,.032.619.187.187,0,0,1-.14.2,5.35,5.35,0,0,0-4.017,5A.188.188,0,0,1,1.5,14.72Z" transform="translate(0 0)" fill="#fff"/>
</svg>
