<svg xmlns="http://www.w3.org/2000/svg" width="16.658" height="10.601" viewBox="0 0 16.658 10.601">
  <path id="noun-list-1668463" d="M4.547,73.108a.757.757,0,1,1,0-1.514H15.905a.757.757,0,0,1,0,1.514Zm0,4.543a.757.757,0,1,1,0-1.514H15.905a.757.757,0,0,1,0,1.514Zm0,4.543a.757.757,0,1,1,0-1.514H15.905a.757.757,0,0,1,0,1.514ZM.761,73.108a.757.757,0,0,1,0-1.514h.756a.757.757,0,1,1,0,1.514Zm0,4.543a.757.757,0,0,1,0-1.514h.756a.757.757,0,1,1,0,1.514Zm0,4.543a.757.757,0,0,1,0-1.514h.756a.757.757,0,1,1,0,1.514Z" transform="translate(-0.004 -71.594)" fill="#1d1d1b"/>
</svg>
