<?xml version="1.0" encoding="utf-8"?>
<!-- Generator: Adobe Illustrator 22.1.0, SVG Export Plug-In . SVG Version: 6.00 Build 0)  -->
<svg version="1.1" id="Layer_1" xmlns="http://www.w3.org/2000/svg" xmlns:xlink="http://www.w3.org/1999/xlink" x="0px" y="0px"
	 viewBox="0 0 256 42" style="enable-background:new 0 0 256 42;" xml:space="preserve">
<style type="text/css">
	.st0{fill:#FFFFFF;}
	.st1{fill:#1D1D1B;}
</style>
<g>
	<path class="st0" d="M232.9,34.3V17.7c0-1.1,0-1.5-0.2-2.1c-0.5-2-2.3-3-4.3-3c-1.9,0-2.9,0.7-4.2,2l0-1.5h-5v21.3h4.9V19
		c0-0.4-0.2-2.9,2.1-2.9c0.5,0,0.8,0.1,1,0.2c0.7,0.4,0.7,1,0.7,2.3v15.7H232.9L232.9,34.3z M161.2,9.2c1.9,0,2.7,0.9,2.7,3v2.9
		c0,2.3-1.2,3.1-3.2,3.1h-2.1v-9L161.2,9.2L161.2,9.2z M170,34.3c-0.5-1.1-0.6-2.1-0.6-3.6v-4.5c0-3.1-0.9-5.3-3.6-6.2
		c2.4-1,3.5-2.9,3.5-5.9v-2.3c0-4.5-2.4-6.7-8-6.7h-8.1v29.3h5.4V22.3h1.9c2.4,0,3.5,1,3.5,3.7v4.6c0,2.4,0.2,2.8,0.5,3.6L170,34.3
		L170,34.3z M60.9,26.8c0,1.5-0.1,2.7-1.9,3.1C58.5,30,58,30,57.5,30h-1.9V9.2h2.1c0.8,0,1.7-0.1,2.5,0.5c0.8,0.7,0.7,1.6,0.7,2.5
		C60.9,12.2,60.9,26.8,60.9,26.8z M66.3,26.4V12.7c0-2.4-0.2-4.6-2.2-6.3c-1.1-1-2.6-1.5-4-1.5h-9.9v29.3h8.7c1.6,0,3.2,0,4.7-0.9
		c1.2-0.7,2.6-2.2,2.7-5.4C66.3,27.5,66.3,26.9,66.3,26.4L66.3,26.4z M97.8,34.3V17.4c0-1,0-1.4-0.2-1.9c-0.5-1.9-2.2-2.9-4.1-2.9
		c-0.3,0-0.7,0-1.4,0.1c-1.2,0.2-1.8,0.5-3.5,2c-0.5-0.6-1.7-2.1-4-2.1c-2.2,0-3.7,1.4-4.2,1.9V13h-4.9v21.3h4.9V18.5
		c0-0.4-0.1-2.5,1.9-2.5c0.5,0,0.8,0.1,1.2,0.4c0.7,0.6,0.7,1.4,0.7,2.3v15.6h4.9V18.8c0-1.3,0.3-2.7,2-2.7c0.5,0,0.8,0.2,1,0.3
		c0.7,0.5,0.7,1.3,0.7,2.2v15.7L97.8,34.3L97.8,34.3z M108.3,29c0,0.3,0.1,2.2-1.7,2.2c-1.7,0-1.7-1.8-1.7-2.2V18.3
		c0-0.9,0-1.7,0.7-2.3c0.2-0.1,0.5-0.3,1-0.3c0.2,0,0.6,0,0.9,0.2c0.7,0.4,0.8,1,0.8,2.3L108.3,29L108.3,29z M113.2,28.8V18.5
		c0-1.4-0.2-2.1-0.5-2.8c-1.3-3.2-5.4-3.1-6.1-3.1c-2.5,0-5.3,0.8-6.3,3.4c-0.2,0.7-0.4,1.2-0.4,2.7v9.5c0,1.5,0.1,2.2,0.4,2.9
		c0.8,2.5,3.1,3.2,3.9,3.4c0.4,0.1,1.1,0.2,2.1,0.2c0.8,0,3.8,0.1,5.6-2.2C113,31.4,113.2,30.3,113.2,28.8L113.2,28.8z M140,28
		c0,0.9-0.1,1.3-0.4,1.7c-0.4,0.5-1,0.8-1.7,0.8c-0.5,0-1-0.2-1.2-0.3c-0.6-0.4-0.7-0.8-0.7-2.1v-9.1c0-0.9,0-1.8,0.8-2.4
		c0.3-0.2,0.7-0.3,1.1-0.3c0.2,0,0.7,0,1.2,0.3c0.9,0.5,0.9,1.2,0.9,2.1L140,28L140,28z M144.9,34.3V5H140v9.8
		c-1.2-1.1-2.4-2.2-4.3-2.2c-1.2,0-2.1,0.5-2.4,0.7c-2.4,1.5-2.2,4.2-2.2,4.9v9.7c0,3.4,0.2,4.7,1.8,5.9c0.9,0.6,1.9,0.9,2.9,0.9
		c2.6,0,3.7-1.8,4.2-2.5l0,2.1L144.9,34.3L144.9,34.3z M129,34.3V17.7c0-1.1,0-1.5-0.2-2.1c-0.5-2-2.3-3-4.3-3c-1.9,0-2.9,0.7-4.2,2
		l0-1.5h-5v21.3h4.9V19c0-0.4-0.2-2.9,2.1-2.9c0.5,0,0.8,0.1,1,0.2c0.7,0.4,0.7,1,0.7,2.3v15.7H129z M179.9,29
		c0,0.3,0.1,2.2-1.7,2.2c-1.7,0-1.7-1.8-1.7-2.2V18.3c0-0.9,0-1.7,0.7-2.3c0.2-0.1,0.5-0.3,1-0.3c0.2,0,0.6,0,0.9,0.2
		c0.7,0.4,0.8,1,0.8,2.3L179.9,29L179.9,29z M184.8,28.8V18.5c0-1.4-0.2-2.1-0.5-2.8c-1.3-3.2-5.4-3.1-6.1-3.1
		c-2.5,0-5.3,0.8-6.3,3.4c-0.2,0.7-0.4,1.2-0.4,2.7v9.5c0,1.5,0.1,2.2,0.4,2.9c0.8,2.5,3.1,3.2,3.9,3.4c0.4,0.1,1.1,0.2,2.1,0.2
		c0.8,0,3.8,0.1,5.6-2.2C184.6,31.4,184.8,30.3,184.8,28.8L184.8,28.8z M194.9,29c0,0.3,0.1,2.2-1.7,2.2c-1.7,0-1.7-1.8-1.7-2.2
		V18.3c0-0.9,0-1.7,0.7-2.3c0.2-0.1,0.5-0.3,1-0.3c0.2,0,0.6,0,0.9,0.2c0.7,0.4,0.8,1,0.8,2.3L194.9,29L194.9,29z M199.8,28.8V18.5
		c0-1.4-0.2-2.1-0.5-2.8c-1.3-3.2-5.4-3.1-6.1-3.1c-2.5,0-5.3,0.8-6.3,3.4c-0.2,0.7-0.4,1.2-0.4,2.7v9.5c0,1.5,0.1,2.2,0.4,2.9
		c0.8,2.5,3.1,3.2,3.9,3.4c0.4,0.1,1.1,0.2,2.1,0.2c0.8,0,3.8,0.1,5.6-2.2C199.6,31.4,199.8,30.3,199.8,28.8L199.8,28.8z M210.6,9V5
		c-0.6,0-1.2-0.1-1.8-0.1c-1.5,0-2.9,0-4.1,1c-0.4,0.4-1.1,1-1.2,2.4c-0.2,1.2-0.1,0.3-0.1,4.7h-2.9v3.3h2.9v18h4.9v-18h2.9V13h-2.9
		v-2.6c0-0.2,0-1.2,0.9-1.4C209.4,8.9,209.9,9,210.6,9 M243.9,28.3c0,0.5,0,2.4-2,2.4c-0.3,0-1.4,0-1.8-1.1
		c-0.1-0.2-0.2-0.7-0.2-1.2v-9.5c0-1.2,0.2-1.7,0.8-2.2c0.5-0.4,1-0.4,1.2-0.4c2.2,0,2,2.2,2,2.6L243.9,28.3L243.9,28.3z M248.9,35
		V13h-5v1.7c-1.3-1.2-2.5-2.1-4.4-2.1c-2.9,0-3.9,2-4.2,3c-0.2,0.8-0.3,1.5-0.3,2.3v11.3c0,1.9,0.1,3.7,2.1,4.7
		c0.8,0.4,1.7,0.6,2.5,0.6c2.5,0,3.7-1.3,4.3-2.1v3.3c0,0.8,0,1.8-0.9,2.2c-0.2,0.1-0.5,0.3-1.1,0.3c-1.2,0-1.7-0.8-1.8-1.2
		c-0.1-0.4-0.1-0.9-0.1-1h-4.9c0,0.9,0,1.8,0.3,2.6c1,2.6,3.8,2.9,4.5,3.1c0.4,0,0.8,0.1,1.7,0.1c2.5,0,4.2-0.7,5-1.2
		c2-1.3,2.1-3.4,2.2-4.2C248.9,35.9,248.9,35.5,248.9,35L248.9,35z M214.6,11c1.6,0,2.9-1.2,2.9-2.8s-1.2-2.9-2.8-2.9
		c0,0-0.1,0-0.1,0c-1.6,0-2.9,1.3-2.8,2.9C211.8,9.7,213.1,11,214.6,11 M212.1,34.3h5V13h-5V34.3z M70.9,11c1.6,0,2.9-1.2,2.9-2.8
		c0-1.6-1.2-2.9-2.8-2.9c0,0-0.1,0-0.1,0c-1.6,0-2.9,1.3-2.8,2.9C68.1,9.7,69.4,11,70.9,11 M68.4,34.3h5V13h-5V34.3z M251,13h1.6
		v0.5h-0.6v2.9h-0.5v-2.9H251V13z M254.4,13l-0.4,2.4l-0.4-2.4h-0.7v3.4h0.5V14l0.4,2.4h0.5l0.4-2.4v2.4h0.5V13L254.4,13z M20.2,0
		v10l20.2,14.1v-10L20.2,0z"/>
	<path class="st1" d="M20.2,0L0,14.1v10L27.4,5L20.2,0z M0,34.3h40.5v-8.2H0V34.3z"/>
</g>
</svg>
