<svg xmlns="http://www.w3.org/2000/svg" xmlns:xlink="http://www.w3.org/1999/xlink" width="256" height="42"  viewBox="0 0 256 42">
    <defs>
        <rect id="a" width="1440" height="10132" x="-370" y="-1237" rx="10"/>
    </defs>
    <g fill="none" fill-rule="evenodd">

        <rect width="1439" height="10131" x="-369.5" y="-1236.5" stroke="#E1E8ED" rx="10"/>
        <g>
            <g fill="#FFF">
                <path d="M232.883 34.281V17.672c0-1.121 0-1.495-.166-2.077-.498-1.993-2.325-2.99-4.277-2.99-1.91 0-2.948.706-4.235 1.952l.04-1.536h-5.023v21.26h4.94V18.959c0-.415-.206-2.865 2.119-2.865.498 0 .789.125.955.25.665.414.748.955.748 2.283v15.654h4.899zM161.202 9.153c1.908 0 2.74.921 2.74 3.015v2.888c0 2.345-1.224 3.1-3.229 3.1h-2.105V9.152h2.594zm8.758 25.12c-.538-1.089-.587-2.135-.587-3.558v-4.522c0-3.057-.88-5.275-3.572-6.238 2.398-.963 3.523-2.932 3.523-5.946v-2.302c0-4.523-2.398-6.74-7.975-6.74h-8.122v29.306h5.381V22.341h1.86c2.446 0 3.523 1.004 3.523 3.727v4.605c0 2.386.195 2.846.49 3.6h5.48zM60.884 26.848c0 1.452-.125 2.74-1.87 3.072-.497.083-1.037.083-1.535.083h-1.91V9.243h2.118c.83 0 1.744-.084 2.45.498.788.664.747 1.578.747 2.491v14.616zm5.398-.457V12.69c0-2.408-.166-4.568-2.16-6.27a6.146 6.146 0 0 0-4.027-1.454H50.17V34.28h8.678c1.62 0 3.156-.04 4.65-.913 1.164-.665 2.575-2.243 2.74-5.357.043-.539.043-1.079.043-1.619zM97.779 34.281V17.423c0-.996-.042-1.371-.208-1.911-.498-1.868-2.16-2.907-4.07-2.907-.331 0-.663 0-1.37.125-1.203.249-1.784.498-3.487 1.952-.498-.582-1.702-2.118-3.986-2.118-2.242 0-3.654 1.37-4.194 1.868v-1.411h-4.941v21.26h4.9V18.544c0-.374-.125-2.534 1.91-2.534.456 0 .83.084 1.162.375.748.623.665 1.412.665 2.284v15.612h4.899V18.793c0-1.329.333-2.699 1.994-2.699.497 0 .83.166 1.037.291.748.54.748 1.328.748 2.159v15.737h4.94zM108.297 29.049c0 .332.124 2.242-1.744 2.242-1.744 0-1.703-1.827-1.703-2.2V18.295c0-.872-.04-1.744.748-2.325.166-.125.457-.291.996-.291.167 0 .582 0 .914.249.664.415.79.997.79 2.325v10.796zm4.9-.25V18.545c0-1.412-.166-2.076-.499-2.824-1.328-3.155-5.398-3.113-6.062-3.113-2.533 0-5.315.788-6.312 3.446-.248.664-.415 1.245-.415 2.699v9.509c0 1.494.125 2.158.374 2.864.83 2.492 3.114 3.198 3.945 3.364.373.083 1.121.207 2.117.207.831 0 3.78.082 5.647-2.16.997-1.162 1.204-2.241 1.204-3.736zM139.99 27.97c0 .914-.082 1.328-.373 1.743-.373.54-.996.83-1.702.83-.54 0-1.038-.207-1.204-.332-.582-.373-.706-.83-.706-2.075v-9.053c0-.913-.041-1.785.789-2.365a1.935 1.935 0 0 1 1.079-.333c.249 0 .665.042 1.205.333.872.497.913 1.16.913 2.116v9.136zm4.942 6.312V4.966h-4.941v9.758c-1.204-1.121-2.45-2.158-4.277-2.158-1.204 0-2.076.497-2.45.705-2.366 1.453-2.16 4.193-2.16 4.94v9.676c0 3.362.209 4.733 1.787 5.895a5.071 5.071 0 0 0 2.948.915c2.574.04 3.654-1.787 4.152-2.493l-.041 2.078h4.982zM128.97 34.281V17.672c0-1.121 0-1.495-.166-2.077-.498-1.993-2.325-2.99-4.277-2.99-1.91 0-2.948.706-4.235 1.952l.04-1.536h-5.023v21.26h4.94V18.959c0-.415-.207-2.865 2.119-2.865.498 0 .789.125.955.25.665.414.748.955.748 2.283v15.654h4.899zM179.887 29.049c0 .332.124 2.242-1.744 2.242-1.744 0-1.703-1.827-1.703-2.2V18.295c0-.872-.04-1.744.748-2.325.166-.125.457-.291.996-.291.167 0 .582 0 .914.249.664.415.79.997.79 2.325v10.796zm4.9-.25V18.545c0-1.412-.166-2.076-.499-2.824-1.328-3.155-5.398-3.113-6.062-3.113-2.533 0-5.315.788-6.312 3.446-.248.664-.415 1.245-.415 2.699v9.509c0 1.494.125 2.158.374 2.864.83 2.492 3.114 3.198 3.945 3.364.373.083 1.121.207 2.117.207.831 0 3.78.082 5.647-2.16.997-1.162 1.204-2.241 1.204-3.736zM194.876 29.049c0 .332.124 2.242-1.744 2.242-1.744 0-1.703-1.827-1.703-2.2V18.295c0-.872-.04-1.744.748-2.325.166-.125.457-.291.996-.291.167 0 .582 0 .914.249.664.415.79.997.79 2.325v10.796zm4.9-.25V18.545c0-1.412-.166-2.076-.499-2.824-1.328-3.155-5.398-3.113-6.062-3.113-2.533 0-5.315.788-6.312 3.446-.248.664-.415 1.245-.415 2.699v9.509c0 1.494.125 2.158.374 2.864.83 2.492 3.114 3.198 3.945 3.364.373.083 1.121.207 2.117.207.831 0 3.78.082 5.647-2.16.997-1.162 1.204-2.241 1.204-3.736zM210.558 9.035v-4.07a26.012 26.012 0 0 0-1.827-.082c-1.495 0-2.948.042-4.11 1.038-.416.373-1.08 1.038-1.247 2.367-.165 1.204-.124.29-.124 4.733h-2.893v3.28h2.893v17.98h4.9V16.3h2.934v-3.28h-2.893v-2.616c0-.207 0-1.204.914-1.412.29-.083.747-.041 1.453.042M243.907 28.343c0 .54.042 2.367-2.035 2.367-.332 0-1.411-.042-1.785-1.121-.083-.25-.166-.665-.166-1.246v-9.467c0-1.246.249-1.744.789-2.16.456-.373 1.038-.373 1.204-.373 2.159 0 1.993 2.159 1.993 2.575v9.425zm5.024 6.686V13.022h-4.982v1.702c-1.33-1.245-2.492-2.117-4.402-2.117-2.865 0-3.903 2.035-4.235 3.03-.25.789-.291 1.495-.291 2.326v11.252c0 1.869.125 3.654 2.076 4.692a5.49 5.49 0 0 0 2.533.623c2.533 0 3.654-1.33 4.319-2.076v3.28c0 .83-.042 1.786-.872 2.243-.208.125-.54.29-1.122.29-1.245 0-1.702-.788-1.827-1.245-.124-.374-.083-.913-.083-.996h-4.9c0 .872.042 1.785.333 2.616.955 2.573 3.778 2.947 4.484 3.07.415.043.83.126 1.703.126 2.49 0 4.194-.665 5.024-1.246 1.952-1.33 2.117-3.445 2.159-4.192.04-.457.083-.914.083-1.371zM214.61 11.02a2.883 2.883 0 1 0 0-5.765 2.883 2.883 0 0 0 0 5.765"/>
            </g>
            <path fill="#FFF" d="M212.119 34.28h4.982V13.02h-4.982zM70.915 11.02a2.883 2.883 0 1 0 0-5.765 2.883 2.883 0 0 0 0 5.765M68.424 34.28h4.982V13.02h-4.982zM251.011 13.009h1.645v.484h-.556v2.904h-.533v-2.904h-.556zM254.379 13.008l-.363 2.406-.392-2.406h-.741v3.388h.465v-2.395l.397 2.395h.504l.367-2.43v2.43h.503v-3.388zM20.236 0v9.976L40.472 24.08v-9.974z"/>
            <path fill="#D51317" d="M20.236 0L0 14.107v9.967L27.392 4.987zM0 34.276h40.472v-8.22H0z"/>
        </g>
    </g>
</svg>
