<svg xmlns="http://www.w3.org/2000/svg" width="82.918" height="95.481" viewBox="0 0 82.918 95.481">
  <g id="Group_12763" data-name="Group 12763" transform="translate(-413.048 -757.394)">
    <g id="Group_10905" data-name="Group 10905" transform="matrix(0.985, -0.174, 0.174, 0.985, 400.551, 762.32)">
      <path id="Shape" d="M63.449,80.55H4.028A4.033,4.033,0,0,1,0,76.521V2.014A2.016,2.016,0,0,1,2.014,0h.021L6.959.052l3.981.04L13.8.123,66.506.655l.971,68.959v6.906A4.033,4.033,0,0,1,63.449,80.55Z" transform="translate(12.041 11.004) rotate(9)" fill="#fff"/>
      <path id="Shape_-_Outline" data-name="Shape - Outline" d="M63.449,81.8H4.028A5.285,5.285,0,0,1-1.25,76.521V2.014A3.268,3.268,0,0,1,2.014-1.25h.034l11.764.123,53.927.545.988,70.2v6.906A5.285,5.285,0,0,1,63.449,81.8ZM2.014,1.25a.765.765,0,0,0-.764.764V76.521A2.782,2.782,0,0,0,4.028,79.3H63.449a2.782,2.782,0,0,0,2.778-2.779v-6.9L65.274,1.893Z" transform="translate(12.041 11.004) rotate(9)" fill="#1d1d1b"/>
      <path id="Rectangle" d="M59.558.613l.87,62.494v6.259a3.629,3.629,0,0,1-3.608,3.651H3.608A3.629,3.629,0,0,1,0,69.366V2.014A2.014,2.014,0,0,1,2.014,0H8.6" transform="translate(15.261 15.562) rotate(9)" fill="rgba(166,166,165,0.15)"/>
      <path id="Rectangle-2" data-name="Rectangle" d="M0,4.029A4.029,4.029,0,0,1,4.029,0H49.91a4.028,4.028,0,0,1,2.848,1.179L66.3,14.71a4.029,4.029,0,0,1,1.181,2.849V80.57A4.029,4.029,0,0,1,63.449,84.6H4.029A4.029,4.029,0,0,1,0,80.57Z" transform="matrix(0.985, 0.174, -0.174, 0.985, 28.368, 0)" fill="#fff"/>
      <path id="Rectangle_-_Outline" data-name="Rectangle - Outline" d="M4.029,2.5A1.53,1.53,0,0,0,2.5,4.029V80.57A1.53,1.53,0,0,0,4.029,82.1H63.449a1.53,1.53,0,0,0,1.529-1.529V17.559a1.519,1.519,0,0,0-.448-1.081L50.991,2.947A1.519,1.519,0,0,0,49.91,2.5H4.029m0-2.5H49.91a4.028,4.028,0,0,1,2.848,1.179L66.3,14.71a4.029,4.029,0,0,1,1.181,2.849V80.57A4.029,4.029,0,0,1,63.449,84.6H4.029A4.028,4.028,0,0,1,0,80.57V4.029A4.029,4.029,0,0,1,4.029,0Z" transform="matrix(0.985, 0.174, -0.174, 0.985, 28.368, 0)" fill="#1d1d1b"/>
      <path id="Shape-2" data-name="Shape" d="M11.012,15.951H3.021A4.276,4.276,0,0,1-1.25,11.68V0A1.25,1.25,0,0,1,0-1.25,1.25,1.25,0,0,1,1.25,0V11.68a1.773,1.773,0,0,0,1.771,1.771h7.99a1.25,1.25,0,0,1,0,2.5Z" transform="matrix(0.985, 0.174, -0.174, 0.985, 77.539, 11.127)" fill="#1d1d1b"/>
      <path id="lines" d="M26.186,49.271H0a1.25,1.25,0,0,1-1.25-1.25A1.25,1.25,0,0,1,0,46.771H26.186a1.25,1.25,0,1,1,0,2.5ZM43.306,37.354H0A1.25,1.25,0,0,1-1.25,36.1,1.25,1.25,0,0,1,0,34.854H43.306a1.25,1.25,0,0,1,0,2.5Zm0-12.092H0a1.25,1.25,0,0,1-1.25-1.25A1.25,1.25,0,0,1,0,22.761H43.306a1.25,1.25,0,0,1,0,2.5Zm0-11.919H0a1.25,1.25,0,0,1-1.25-1.25A1.25,1.25,0,0,1,0,10.842H43.306a1.25,1.25,0,0,1,0,2.5ZM30.972,1.25H0A1.25,1.25,0,0,1-1.25,0,1.25,1.25,0,0,1,0-1.25H30.972A1.25,1.25,0,0,1,32.222,0,1.25,1.25,0,0,1,30.972,1.25Z" transform="matrix(0.985, 0.174, -0.174, 0.985, 42.469, 24.044)" fill="#1d1d1b"/>
    </g>
    <g id="icon_two-tone_suggested_check-circle_clip_group_" data-name="icon/two-tone/suggested/check-circle (clip group)" transform="translate(433.346 774.018)">
      <rect id="icon_two-tone_suggested_check-circle_style_" data-name="icon/two-tone/suggested/check-circle (style)" width="10" height="10" transform="translate(0.082 -0.075)" fill="none"/>
      <path id="Vector" d="M4.342,8.683A4.342,4.342,0,1,1,8.683,4.342,4.346,4.346,0,0,1,4.342,8.683Zm0-7.947a3.605,3.605,0,1,0,3.6,3.605A3.609,3.609,0,0,0,4.342.736Z" transform="translate(0.662 0.662)" fill="#1d1d1b"/>
      <path id="Vector-2" data-name="Vector" d="M3.6,7.21A3.605,3.605,0,1,1,7.21,3.6,3.609,3.609,0,0,1,3.6,7.21ZM1.793,3.219a.078.078,0,0,0-.063.123L2.937,5.017a.309.309,0,0,0,.5,0l2.041-2.83a.076.076,0,0,0,.007-.081.077.077,0,0,0-.069-.043H4.963a.31.31,0,0,0-.251.129L3.188,4.306,2.5,3.348a.312.312,0,0,0-.251-.129Z" transform="translate(1.399 1.399)" fill="rgba(166,166,165,0.15)"/>
      <path id="Vector-3" data-name="Vector" d="M3.7,0H3.248A.309.309,0,0,0,3,.129L1.473,2.242l-.69-.957a.31.31,0,0,0-.251-.129H.078a.078.078,0,0,0-.063.123L1.222,2.953a.308.308,0,0,0,.5,0L3.764.123A.077.077,0,0,0,3.7,0Z" transform="translate(3.113 3.463)" fill="#1d1d1b"/>
    </g>
    <g id="icon_two-tone_suggested_check-circle_clip_group_2" data-name="icon/two-tone/suggested/check-circle (clip group)" transform="translate(433.346 786.018)">
      <rect id="icon_two-tone_suggested_check-circle_style_2" data-name="icon/two-tone/suggested/check-circle (style)" width="10" height="10" transform="translate(0.082 -0.075)" fill="none"/>
      <path id="Vector-4" data-name="Vector" d="M4.342,8.683A4.342,4.342,0,1,1,8.683,4.342,4.346,4.346,0,0,1,4.342,8.683Zm0-7.947a3.605,3.605,0,1,0,3.6,3.605A3.609,3.609,0,0,0,4.342.736Z" transform="translate(0.662 0.662)" fill="#1d1d1b"/>
      <path id="Vector-5" data-name="Vector" d="M3.6,7.21A3.605,3.605,0,1,1,7.21,3.6,3.609,3.609,0,0,1,3.6,7.21ZM1.793,3.219a.078.078,0,0,0-.063.123L2.937,5.017a.309.309,0,0,0,.5,0l2.041-2.83a.076.076,0,0,0,.007-.081.077.077,0,0,0-.069-.043H4.963a.31.31,0,0,0-.251.129L3.188,4.306,2.5,3.348a.312.312,0,0,0-.251-.129Z" transform="translate(1.399 1.399)" fill="rgba(166,166,165,0.15)"/>
      <path id="Vector-6" data-name="Vector" d="M3.7,0H3.248A.309.309,0,0,0,3,.129L1.473,2.242l-.69-.957a.31.31,0,0,0-.251-.129H.078a.078.078,0,0,0-.063.123L1.222,2.953a.308.308,0,0,0,.5,0L3.764.123A.077.077,0,0,0,3.7,0Z" transform="translate(3.113 3.463)" fill="#1d1d1b"/>
    </g>
    <g id="icon_two-tone_suggested_check-circle_clip_group_3" data-name="icon/two-tone/suggested/check-circle (clip group)" transform="translate(433.346 798.018)">
      <rect id="icon_two-tone_suggested_check-circle_style_3" data-name="icon/two-tone/suggested/check-circle (style)" width="10" height="10" transform="translate(0.082 -0.075)" fill="none"/>
      <path id="Vector-7" data-name="Vector" d="M4.342,8.683A4.342,4.342,0,1,1,8.683,4.342,4.346,4.346,0,0,1,4.342,8.683Zm0-7.947a3.605,3.605,0,1,0,3.6,3.605A3.609,3.609,0,0,0,4.342.736Z" transform="translate(0.662 0.662)" fill="#1d1d1b"/>
      <path id="Vector-8" data-name="Vector" d="M3.6,7.21A3.605,3.605,0,1,1,7.21,3.6,3.609,3.609,0,0,1,3.6,7.21ZM1.793,3.219a.078.078,0,0,0-.063.123L2.937,5.017a.309.309,0,0,0,.5,0l2.041-2.83a.076.076,0,0,0,.007-.081.077.077,0,0,0-.069-.043H4.963a.31.31,0,0,0-.251.129L3.188,4.306,2.5,3.348a.312.312,0,0,0-.251-.129Z" transform="translate(1.399 1.399)" fill="rgba(166,166,165,0.15)"/>
      <path id="Vector-9" data-name="Vector" d="M3.7,0H3.248A.309.309,0,0,0,3,.129L1.473,2.242l-.69-.957a.31.31,0,0,0-.251-.129H.078a.078.078,0,0,0-.063.123L1.222,2.953a.308.308,0,0,0,.5,0L3.764.123A.077.077,0,0,0,3.7,0Z" transform="translate(3.113 3.463)" fill="#1d1d1b"/>
    </g>
    <g id="icon_two-tone_suggested_check-circle_clip_group_4" data-name="icon/two-tone/suggested/check-circle (clip group)" transform="translate(433.346 810.018)">
      <rect id="icon_two-tone_suggested_check-circle_style_4" data-name="icon/two-tone/suggested/check-circle (style)" width="10" height="10" transform="translate(0.082 -0.075)" fill="none"/>
      <path id="Vector-10" data-name="Vector" d="M4.342,8.683A4.342,4.342,0,1,1,8.683,4.342,4.346,4.346,0,0,1,4.342,8.683Zm0-7.947a3.605,3.605,0,1,0,3.6,3.605A3.609,3.609,0,0,0,4.342.736Z" transform="translate(0.662 0.662)" fill="#1d1d1b"/>
      <path id="Vector-11" data-name="Vector" d="M3.6,7.21A3.605,3.605,0,1,1,7.21,3.6,3.609,3.609,0,0,1,3.6,7.21ZM1.793,3.219a.078.078,0,0,0-.063.123L2.937,5.017a.309.309,0,0,0,.5,0l2.041-2.83a.076.076,0,0,0,.007-.081.077.077,0,0,0-.069-.043H4.963a.31.31,0,0,0-.251.129L3.188,4.306,2.5,3.348a.312.312,0,0,0-.251-.129Z" transform="translate(1.399 1.399)" fill="rgba(166,166,165,0.15)"/>
      <path id="Vector-12" data-name="Vector" d="M3.7,0H3.248A.309.309,0,0,0,3,.129L1.473,2.242l-.69-.957a.31.31,0,0,0-.251-.129H.078a.078.078,0,0,0-.063.123L1.222,2.953a.308.308,0,0,0,.5,0L3.764.123A.077.077,0,0,0,3.7,0Z" transform="translate(3.113 3.463)" fill="#1d1d1b"/>
    </g>
    <g id="icon_two-tone_suggested_check-circle_clip_group_5" data-name="icon/two-tone/suggested/check-circle (clip group)" transform="translate(433.346 822.018)">
      <rect id="icon_two-tone_suggested_check-circle_style_5" data-name="icon/two-tone/suggested/check-circle (style)" width="10" height="10" transform="translate(0.082 -0.075)" fill="none"/>
      <path id="Vector-13" data-name="Vector" d="M4.342,8.683A4.342,4.342,0,1,1,8.683,4.342,4.346,4.346,0,0,1,4.342,8.683Zm0-7.947a3.605,3.605,0,1,0,3.6,3.605A3.609,3.609,0,0,0,4.342.736Z" transform="translate(0.662 0.662)" fill="#1d1d1b"/>
      <path id="Vector-14" data-name="Vector" d="M3.6,7.21A3.605,3.605,0,1,1,7.21,3.6,3.609,3.609,0,0,1,3.6,7.21ZM1.793,3.219a.078.078,0,0,0-.063.123L2.937,5.017a.309.309,0,0,0,.5,0l2.041-2.83a.076.076,0,0,0,.007-.081.077.077,0,0,0-.069-.043H4.963a.31.31,0,0,0-.251.129L3.188,4.306,2.5,3.348a.312.312,0,0,0-.251-.129Z" transform="translate(1.399 1.399)" fill="rgba(166,166,165,0.15)"/>
      <path id="Vector-15" data-name="Vector" d="M3.7,0H3.248A.309.309,0,0,0,3,.129L1.473,2.242l-.69-.957a.31.31,0,0,0-.251-.129H.078a.078.078,0,0,0-.063.123L1.222,2.953a.308.308,0,0,0,.5,0L3.764.123A.077.077,0,0,0,3.7,0Z" transform="translate(3.113 3.463)" fill="#1d1d1b"/>
    </g>
  </g>
</svg>
