<svg xmlns="http://www.w3.org/2000/svg" width="112.793" height="62.279" viewBox="0 0 112.793 62.279">
  <g id="Group_10910" data-name="Group 10910" transform="translate(-1409.604 -786)">
    <path id="Vector" d="M35.412,40.029H32.557a.385.385,0,0,1-.382-.392A15.443,15.443,0,0,0,28,29.364a13.749,13.749,0,0,0-20.2,0,15.443,15.443,0,0,0-4.18,10.273.391.391,0,0,1-.38.392H.38A.365.365,0,0,1,.232,40a.408.408,0,0,1-.124-.091.447.447,0,0,1-.082-.133A.42.42,0,0,1,0,39.618a19.543,19.543,0,0,1,1.4-6.946A18.886,18.886,0,0,1,5.24,26.662a17.76,17.76,0,0,1,5.688-4.053l.023-.01a.176.176,0,0,0,.033-.015A12.759,12.759,0,0,1,6.092,12.471C6.092,5.594,11.388,0,17.9,0S29.7,5.594,29.7,12.471A12.741,12.741,0,0,1,24.808,22.58l.028.013.028.013a17.769,17.769,0,0,1,5.688,4.053,18.78,18.78,0,0,1,3.836,6.009,19.618,19.618,0,0,1,1.4,6.95.419.419,0,0,1-.026.156.383.383,0,0,1-.082.133A.369.369,0,0,1,35.56,40,.36.36,0,0,1,35.412,40.029ZM17.9,3.822a7.914,7.914,0,0,0-5.788,2.535,9,9,0,0,0,0,12.229,7.877,7.877,0,0,0,11.575,0,8.99,8.99,0,0,0,0-12.229A7.912,7.912,0,0,0,17.9,3.822Z" transform="translate(1409.604 792)"/>
    <path id="Vector-2" data-name="Vector" d="M35.412,40.029H32.557a.385.385,0,0,1-.382-.392A15.443,15.443,0,0,0,28,29.364a13.749,13.749,0,0,0-20.2,0,15.443,15.443,0,0,0-4.18,10.273.391.391,0,0,1-.38.392H.38A.365.365,0,0,1,.232,40a.408.408,0,0,1-.124-.091.447.447,0,0,1-.082-.133A.42.42,0,0,1,0,39.618a19.543,19.543,0,0,1,1.4-6.946A18.886,18.886,0,0,1,5.24,26.662a17.76,17.76,0,0,1,5.688-4.053l.023-.01a.176.176,0,0,0,.033-.015A12.759,12.759,0,0,1,6.092,12.471C6.092,5.594,11.388,0,17.9,0S29.7,5.594,29.7,12.471A12.741,12.741,0,0,1,24.808,22.58l.028.013.028.013a17.769,17.769,0,0,1,5.688,4.053,18.78,18.78,0,0,1,3.836,6.009,19.618,19.618,0,0,1,1.4,6.95.419.419,0,0,1-.026.156.383.383,0,0,1-.082.133A.369.369,0,0,1,35.56,40,.36.36,0,0,1,35.412,40.029ZM17.9,3.822a7.914,7.914,0,0,0-5.788,2.535,9,9,0,0,0,0,12.229,7.877,7.877,0,0,0,11.575,0,8.99,8.99,0,0,0,0-12.229A7.912,7.912,0,0,0,17.9,3.822Z" transform="translate(1486.604 792)"/>
    <path id="Path_810" data-name="Path 810" d="M12.943,0A12.943,12.943,0,0,1,25.885,12.943H0A12.943,12.943,0,0,1,12.943,0Z" transform="translate(1414.557 819)" fill="rgba(166,166,165,0.1)"/>
    <path id="Path_811" data-name="Path 811" d="M12.943,0A12.943,12.943,0,0,1,25.885,12.943H0A12.943,12.943,0,0,1,12.943,0Z" transform="translate(1491.557 819)" fill="rgba(166,166,165,0.1)"/>
    <path id="Path_812" data-name="Path 812" d="M22.29,0a22.29,22.29,0,0,1,22.29,22.29H0A22.29,22.29,0,0,1,22.29,0Z" transform="translate(1443.21 825.471)" fill="rgba(166,166,165,0.1)"/>
    <circle id="Ellipse_7" data-name="Ellipse 7" cx="7.5" cy="7.5" r="7.5" transform="translate(1420 796.992)" fill="rgba(166,166,165,0.1)"/>
    <circle id="Ellipse_8" data-name="Ellipse 8" cx="7.5" cy="7.5" r="7.5" transform="translate(1497 796.992)" fill="rgba(166,166,165,0.1)"/>
    <circle id="Ellipse_9" data-name="Ellipse 9" cx="9.714" cy="9.714" r="9.714" transform="translate(1455.345 794.286)" fill="rgba(166,166,165,0.1)"/>
    <path id="Path_813" data-name="Path 813" d="M1394.249,3717.983s3.961-25.934,28.952-26.378,30.37,26.378,30.37,26.378" transform="translate(41.591 -2870)" fill="none" stroke="#1d1d1b" stroke-width="3"/>
    <g id="Path_814" data-name="Path 814" transform="translate(1447.059 786)" fill="none">
      <path d="M18,0A18,18,0,1,1,0,18,18,18,0,0,1,18,0Z" stroke="none"/>
      <path d="M 18 3 C 13.99336051940918 3 10.22653007507324 4.560270309448242 7.393400192260742 7.393400192260742 C 4.560270309448242 10.22653007507324 3 13.99336051940918 3 18 C 3 22.00664138793945 4.560270309448242 25.77346992492676 7.393400192260742 28.60659980773926 C 10.22653007507324 31.43972969055176 13.99336051940918 33 18 33 C 22.00664138793945 33 25.77346992492676 31.43972969055176 28.60659980773926 28.60659980773926 C 31.43972969055176 25.77346992492676 33 22.00664138793945 33 18 C 33 13.99336051940918 31.43972969055176 10.22653007507324 28.60659980773926 7.393400192260742 C 25.77346992492676 4.560270309448242 22.00664138793945 3 18 3 M 18 0 C 27.94112014770508 0 36 8.058879852294922 36 18 C 36 27.94112014770508 27.94112014770508 36 18 36 C 8.058879852294922 36 0 27.94112014770508 0 18 C 0 8.058879852294922 8.058879852294922 0 18 0 Z" stroke="none" fill="#1d1d1b"/>
    </g>
  </g>
</svg>
