<svg xmlns="http://www.w3.org/2000/svg" width="26.87" height="26.87" viewBox="0 0 26.87 26.87">
  <path id="Icon_awesome-plus-circle" data-name="Icon awesome-plus-circle" d="M10.063.563a9.5,9.5,0,1,0,9.5,9.5A9.5,9.5,0,0,0,10.063.563Zm5.516,10.573a.461.461,0,0,1-.46.46H11.595v3.524a.461.461,0,0,1-.46.46H8.99a.461.461,0,0,1-.46-.46V11.595H5.006a.461.461,0,0,1-.46-.46V8.99a.461.461,0,0,1,.46-.46H8.53V5.006a.461.461,0,0,1,.46-.46h2.145a.461.461,0,0,1,.46.46V8.53h3.524a.461.461,0,0,1,.46.46Z" transform="translate(13.435 -0.795) rotate(45)" fill="#c6c6c6"/>
</svg>
