<svg xmlns="http://www.w3.org/2000/svg" width="26" height="22" viewBox="0 0 26 22">
  <g id="Group_14011" data-name="Group 14011" transform="translate(-316 -1291)">
    <path id="Rectangle_1493" data-name="Rectangle 1493" d="M1,1V5H5V1H1M0,0H6V6H0Z" transform="translate(316 1291)" fill="#fff"/>
    <path id="Rectangle_1494" data-name="Rectangle 1494" d="M1,1V5H5V1H1M0,0H6V6H0Z" transform="translate(316 1299)" fill="#fff"/>
    <path id="Rectangle_1495" data-name="Rectangle 1495" d="M1,1V5H5V1H1M0,0H6V6H0Z" transform="translate(316 1307)" fill="#fff"/>
    <path id="Line_464" data-name="Line 464" d="M18,.5H0v-1H18Z" transform="translate(324 1294)" fill="#fff"/>
    <path id="Line_465" data-name="Line 465" d="M18,.5H0v-1H18Z" transform="translate(324 1302)" fill="#fff"/>
    <path id="Line_466" data-name="Line 466" d="M18,.5H0v-1H18Z" transform="translate(324 1310)" fill="#fff"/>
  </g>
</svg>
