<svg xmlns="http://www.w3.org/2000/svg" width="96.213" height="100.407" viewBox="0 0 96.213 100.407">
  <g id="Group_375" data-name="Group 375" transform="translate(1.393)">
    <path id="Shape" d="M63.449,80.55H4.028A4.033,4.033,0,0,1,0,76.521V2.014A2.016,2.016,0,0,1,2.014,0h.021L6.959.052l3.981.04L13.8.123,66.506.655l.971,68.959v6.906A4.033,4.033,0,0,1,63.449,80.55Z" transform="translate(0 19.065) rotate(-7)" fill="#fff"/>
    <path id="Shape_-_Outline" data-name="Shape - Outline" d="M63.449,81.8H4.028A5.285,5.285,0,0,1-1.25,76.521V2.014A3.268,3.268,0,0,1,2.014-1.25h.034l11.764.123,53.927.545.988,70.2v6.906A5.285,5.285,0,0,1,63.449,81.8ZM2.014,1.25a.765.765,0,0,0-.764.764V76.521A2.782,2.782,0,0,0,4.028,79.3H63.449a2.782,2.782,0,0,0,2.778-2.779v-6.9L65.274,1.893Z" transform="translate(0 19.065) rotate(-7)" fill="#1d1d1b"/>
    <path id="Rectangle" d="M59.558.613l.87,62.494v6.259a3.629,3.629,0,0,1-3.608,3.651H3.608A3.629,3.629,0,0,1,0,69.366V2.014A2.014,2.014,0,0,1,2.014,0H8.6" transform="translate(4.352 22.558) rotate(-7)" fill="rgba(166,166,165,0.15)"/>
    <path id="Rectangle-2" data-name="Rectangle" d="M0,4.029A4.029,4.029,0,0,1,4.029,0H49.91a4.028,4.028,0,0,1,2.848,1.179L66.3,14.71a4.029,4.029,0,0,1,1.181,2.849V80.57A4.029,4.029,0,0,1,63.449,84.6H4.029A4.029,4.029,0,0,1,0,80.57Z" transform="matrix(0.985, 0.174, -0.174, 0.985, 28.368, 0)" fill="#fff"/>
    <path id="Rectangle_-_Outline" data-name="Rectangle - Outline" d="M4.029,2.5A1.53,1.53,0,0,0,2.5,4.029V80.57A1.53,1.53,0,0,0,4.029,82.1H63.449a1.53,1.53,0,0,0,1.529-1.529V17.559a1.519,1.519,0,0,0-.448-1.081L50.991,2.947A1.519,1.519,0,0,0,49.91,2.5H4.029m0-2.5H49.91a4.028,4.028,0,0,1,2.848,1.179L66.3,14.71a4.029,4.029,0,0,1,1.181,2.849V80.57A4.029,4.029,0,0,1,63.449,84.6H4.029A4.028,4.028,0,0,1,0,80.57V4.029A4.029,4.029,0,0,1,4.029,0Z" transform="matrix(0.985, 0.174, -0.174, 0.985, 28.368, 0)" fill="#1d1d1b"/>
    <path id="Shape-2" data-name="Shape" d="M11.012,15.951H3.021A4.276,4.276,0,0,1-1.25,11.68V0A1.25,1.25,0,0,1,0-1.25,1.25,1.25,0,0,1,1.25,0V11.68a1.773,1.773,0,0,0,1.771,1.771h7.99a1.25,1.25,0,0,1,0,2.5Z" transform="matrix(0.985, 0.174, -0.174, 0.985, 77.539, 11.127)" fill="#1d1d1b"/>
    <path id="lines" d="M26.185,51.446H0A1.25,1.25,0,0,1-1.25,50.2,1.25,1.25,0,0,1,0,48.946H26.185a1.25,1.25,0,0,1,0,2.5ZM43.307,38.354H0A1.25,1.25,0,0,1-1.25,37.1,1.25,1.25,0,0,1,0,35.854H43.307a1.25,1.25,0,0,1,0,2.5Zm0-13.093H0a1.25,1.25,0,0,1-1.25-1.25A1.25,1.25,0,0,1,0,22.761H43.307a1.25,1.25,0,0,1,0,2.5Zm0-13.093H17.041a1.25,1.25,0,1,1,0-2.5H43.307a1.25,1.25,0,1,1,0,2.5ZM30.971,1.25H16.5A1.25,1.25,0,0,1,15.246,0,1.25,1.25,0,0,1,16.5-1.25H30.971A1.25,1.25,0,0,1,32.221,0,1.25,1.25,0,0,1,30.971,1.25Z" transform="matrix(0.985, 0.174, -0.174, 0.985, 37.094, 20.109)" fill="#1d1d1b"/>
    <text id="_" data-name="$" transform="matrix(0.978, 0.208, -0.208, 0.978, 32.58, 31.471)" fill="#1d1d1b" font-size="20" font-family="Arial-BoldMT, Arial" font-weight="700"><tspan x="0" y="0">$</tspan></text>
  </g>
</svg>
