<svg xmlns="http://www.w3.org/2000/svg" width="121" height="70.84" viewBox="0 0 121 70.84">
  <g id="Group_10911" data-name="Group 10911" transform="translate(-1069 -783.458)">
    <path id="Path_807" data-name="Path 807" d="M208.389,156.136l-14.741-29.261h0a.993.993,0,0,0-1.386-.411l-10.478,6.1h0a.993.993,0,0,0-.392,1.3l.656,1.332c-4.142.231-10.5-2.421-16.2-4.815-4.869-2.046-9.468-3.978-12.483-4.044h0a18.815,18.815,0,0,0-5.9,1.146c-6.407-2.02-14.493,2.267-20.42,5.418h0a26.815,26.815,0,0,1-5.735,2.625,18.993,18.993,0,0,1-7.233-.614l.517-1.049h0a.993.993,0,0,0-.392-1.3l-10.478-6.1a.994.994,0,0,0-1.386.411L87.6,156.136a.992.992,0,0,0,.41,1.316l10.874,5.957a.995.995,0,0,0,1.367-.432l.986-2a39.485,39.485,0,0,0,11.138,9.922l-.826,1.48a5.848,5.848,0,0,0,2.254,7.946l.439.246h0a5.809,5.809,0,0,0,2.837.74,5.875,5.875,0,0,0,1.331-.175,5.827,5.827,0,0,0,2.478,7.431l.44.246a5.708,5.708,0,0,0,6.172-.357c.033.182.048.363.1.545a5.807,5.807,0,0,0,2.773,3.507l.44.245a5.8,5.8,0,0,0,2.836.74,5.871,5.871,0,0,0,4.131-1.705,5.824,5.824,0,0,0,2.75,3.454l.44.245a5.845,5.845,0,0,0,7.946-2.254l1-1.792,6.242,4.6h0a5.848,5.848,0,0,0,8.164-1.236l.3-.4a5.83,5.83,0,0,0,1.029-4.494,5.764,5.764,0,0,0,1.6.238,6.027,6.027,0,0,0,.891-.067,5.809,5.809,0,0,0,3.826-2.313l.3-.405a5.81,5.81,0,0,0,1.028-4.492,5.769,5.769,0,0,0,1.6.238,6.031,6.031,0,0,0,.891-.067,5.8,5.8,0,0,0,3.824-2.311l.3-.407a5.807,5.807,0,0,0,1.028-4.5,5.791,5.791,0,0,0,6.316-2.137l.3-.407h0a5.834,5.834,0,0,0-.152-7.084,13.647,13.647,0,0,0,7.36-5.184l.972,1.973h0a.993.993,0,0,0,.592.507.955.955,0,0,0,.3.046.988.988,0,0,0,.476-.121l10.876-5.959a.991.991,0,0,0,.41-1.315ZM98.931,161.171l-9.125-5,13.836-27.465,8.768,5.1Zm16.28,17.667-.439-.246a3.863,3.863,0,0,1-1.489-5.248l3.588-6.43a3.856,3.856,0,0,1,5.248-1.488l.44.246h0a3.861,3.861,0,0,1,1.49,5.246l-3.593,6.437a3.862,3.862,0,0,1-5.244,1.483Zm12.331,6.753h0a3.861,3.861,0,0,1-5.247,1.489h0l-.44-.245a3.863,3.863,0,0,1-1.488-5.248l1.823-3.267,0,0,3.588-6.43,1.825-3.27h0a3.86,3.86,0,0,1,5.248-1.489l.441.246h0a3.863,3.863,0,0,1,1.489,5.248l-.576,1.032h0l-3.043,5.452Zm10.731,1.7-1.248,2.236h0a3.86,3.86,0,0,1-5.248,1.489l-.439-.245h0a3.858,3.858,0,0,1-1.489-5.248l3.043-5.452,3.043-5.453a3.86,3.86,0,0,1,5.247-1.488l.439.246h0a3.863,3.863,0,0,1,1.488,5.248l-3.042,5.452-1.8,3.215Zm8.909,4.969h0a3.863,3.863,0,0,1-5.248,1.488h0l-.439-.245a3.863,3.863,0,0,1-1.49-5.247l1.8-3.216,1.8-3.215a3.856,3.856,0,0,1,5.247-1.488l.44.246a3.856,3.856,0,0,1,1.488,5.247ZM185.962,172.1l-.3.407h0a3.86,3.86,0,0,1-5.392.819l-1.6-1.175h0l-11.37-8.369a.992.992,0,1,0-1.176,1.6l11.371,8.369a3.863,3.863,0,0,1,.819,5.391l-.3.406h0a3.858,3.858,0,0,1-5.392.82l-1.594-1.173,0,0-8.561-6.3h0a.992.992,0,0,0-1.176,1.6l8.563,6.3a3.862,3.862,0,0,1,.815,5.39l-.3.405h0a3.857,3.857,0,0,1-5.392.819l-1.6-1.175,0,0,0,0-5.238-3.855a.992.992,0,1,0-1.176,1.6l5.243,3.86a3.862,3.862,0,0,1,.825,5.388l-.3.4a3.867,3.867,0,0,1-5.4.82l-6.442-4.742L152.5,186.8a5.841,5.841,0,0,0-2.253-7.946l-.44-.245a5.789,5.789,0,0,0-4.408-.525,5.832,5.832,0,0,0-2.812-6.438l-.439-.246a5.806,5.806,0,0,0-4.93-.325,5.829,5.829,0,0,0-2.962-5.433l-.44-.246h0a5.831,5.831,0,0,0-7.623,1.793,5.8,5.8,0,0,0-2.668-3.248l-.44-.246a5.838,5.838,0,0,0-7.945,2.253l-1.8,3.216h0a36.889,36.889,0,0,1-11.108-10.217l10.95-22.227h0a23.67,23.67,0,0,0,6.2.919,14.8,14.8,0,0,0,2.232-.161,26.031,26.031,0,0,0,6.364-2.834c4.621-2.457,10.626-5.653,15.741-5.72-5.891,2.588-11.714,6.466-12.643,8.553h0a47.739,47.739,0,0,0-2,10.6,5.074,5.074,0,0,0,3.963,5.584,7.05,7.05,0,0,0,7.73-3.6l2.259-4.3h0a6.5,6.5,0,0,1,5.771-3.489h3.264L185.141,166.7a3.863,3.863,0,0,1,.82,5.392Zm-.47-7.6-32.515-24.015a.985.985,0,0,0-.589-.194H148.8a8.483,8.483,0,0,0-7.528,4.549l-2.259,4.3a5.059,5.059,0,0,1-5.547,2.585,3.1,3.1,0,0,1-2.417-3.41,48.629,48.629,0,0,1,1.846-10.031c.822-1.851,8.269-6.624,14.671-8.827a.969.969,0,0,0,.315-.1,17,17,0,0,1,5.444-1.043c2.637.057,7.067,1.919,11.757,3.889,6.532,2.744,13.244,5.535,17.9,4.872l10.785,21.894h0a11.721,11.721,0,0,1-8.27,5.53Zm11.568-3.326-13.479-27.364,8.768-5.1,13.836,27.465Z" transform="translate(981.504 657.129)"/>
    <path id="Path_808" data-name="Path 808" d="M1159.292,3633.281l-6.632,3.75,11.984,25.219,6.772-3.883Z" transform="translate(14 -2846)" fill="rgba(166,166,165,0.15)"/>
    <path id="Path_809" data-name="Path 809" d="M1175.8,3642.874s-.106,2.658,5.531,1.617,7.051,1.971,7.051,1.971-3.136,6.92,0,9.388,7.508,4.71,10.655,2.634,3.874-9.127,8.326-9.621,9.968,3.571,11.447,4.677,26.373,17.665,26.373,17.665.037,4.094-2.45,4.211-15.2-11.324-15.2-11.324-3.552-.035-3.427,3.273,13.552,11.188,13.552,11.188.857,4.106-2.544,3.887-12.56-7.807-12.56-7.807-2.716-1.157-2.664,1.275,10.741,9.734,10.741,9.734-.241,4.98-3.1,3.947-11.731-9.634-11.874-7.149,5.34,6.6,6.895,10.087-1.269,3.637-2.664,3.765-7.213-4.858-7.213-4.858l-1.5-6.773-8.208-8.154-9.339-6.208-12.424-2.455-6.715,2.455-6.856-4.577s-5.392-5.923-1.108-9.873S1175.8,3642.874,1175.8,3642.874Z" transform="translate(-79 -2846)" fill="rgba(166,166,165,0.15)"/>
  </g>
</svg>
